<?xml version="1.0" encoding="UTF-8"?>
<svg version="1.1" xmlns="http://www.w3.org/2000/svg" width="563" height="543">
<path d="M0 0 C0.72391937 -0.00418945 1.44783875 -0.00837891 2.19369507 -0.01269531 C4.62788045 -0.02266978 7.06189073 -0.0224327 9.49609375 -0.01953125 C10.77699387 -0.01912338 10.77699387 -0.01912338 12.08377075 -0.01870728 C68.85159883 0.06286413 125.6591248 4.37726504 182.29910278 7.8679657 C215.31161798 9.90181032 248.3278232 11.82168525 281.35462952 13.6083622 C285.1583088 13.81416868 288.96197377 14.02023817 292.765625 14.2265625 C293.5045121 14.26663548 294.2433992 14.30670845 295.00467682 14.34799576 C311.23424127 15.22941818 327.45983238 16.17590671 343.68310547 17.16650391 C353.24228268 17.74596065 362.79823028 18.26708089 372.3671875 18.65625 C374.18474131 18.73401987 376.0022871 18.81197768 377.81982422 18.89013672 C381.14272706 19.03260524 384.46529744 19.15271 387.78955078 19.25830078 C396.81017379 19.60391502 405.77898915 20.01336415 412.49609375 26.73046875 C414.72632806 30.51217041 415.06398652 33.37074171 415.09181213 37.68196106 C415.10649725 39.41337389 415.10649725 39.41337389 415.12147903 41.17976475 C415.12723324 42.45438037 415.13298744 43.72899599 415.13891602 45.04223633 C415.14850311 46.40623984 415.15850277 47.77024051 415.16888046 49.13423824 C415.19615303 52.89582493 415.21709121 56.65742426 415.23686624 60.41905689 C415.25460305 63.65134149 415.27585873 66.88359918 415.29711646 70.11586225 C415.36732135 80.80425312 415.42531559 91.49269659 415.481287 102.18116999 C415.50095 105.89856918 415.52141751 109.61596375 415.54188454 113.33335859 C415.70094679 142.27811654 415.82710004 171.22297197 415.93359375 200.16796875 C415.93748076 201.21923069 415.94136778 202.27049263 415.94537258 203.35361099 C416.0467736 230.89509758 416.12406831 258.4365295 416.16068512 285.97818178 C416.16203129 286.98951113 416.16337745 288.00084047 416.1647644 289.04281616 C416.16675745 290.55445291 416.16675745 290.55445291 416.16879076 292.09662777 C416.17886328 299.20763946 416.19653397 306.31860823 416.21731567 313.42959595 C416.24252023 322.11801718 416.25694787 330.80637513 416.2574324 339.4948343 C416.25791857 343.94233642 416.26314567 348.3896973 416.28119469 352.83716583 C416.29756604 356.91813546 416.29993035 360.99886637 416.29117477 365.07985723 C416.2904296 366.55772538 416.29475951 368.03560663 416.30467808 369.51344168 C416.35893925 378.08929138 416.32823049 384.33713955 411.30859375 391.48046875 C405.05724225 395.9222185 395.81286892 395.69842818 388.40625 396.28125 C386.66308502 396.42296883 386.66308502 396.42296883 384.88470459 396.56755066 C381.61996847 396.82728466 378.35475934 397.07878967 375.088871 397.32357788 C373.68671022 397.42869476 372.28460823 397.53459851 370.88256454 397.64126587 C339.53724213 400.02458097 308.15155966 401.35976337 276.74609375 402.66796875 C243.41345923 404.0565435 210.10123561 405.50792607 176.80859375 407.66796875 C175.62378418 407.74464972 175.62378418 407.74464972 174.41503906 407.82287979 C165.78920932 408.38190259 157.16421586 408.95310441 148.53955078 409.52978516 C131.27797603 410.68313339 114.01206818 411.77031141 96.74609375 412.85546875 C95.8977018 412.90886288 95.04930984 412.962257 94.17520905 413.01726913 C73.68450296 414.30601497 53.19486508 415.56048705 32.68359375 416.48046875 C31.82722321 416.51989594 30.97085266 416.55932312 30.08853149 416.59994507 C25.48367127 416.80806053 20.87970266 416.98223532 16.27172852 417.10406494 C14.61252527 417.1494128 12.9535092 417.20185779 11.29467773 417.25921631 C8.57543209 417.34825002 5.85688071 417.40787259 3.13671875 417.4609375 C2.30509216 417.49190018 1.47346558 417.52286285 0.61663818 417.55476379 C-4.77501222 417.61816043 -7.80941334 416.7895105 -12.06640625 413.16796875 C-15.24154129 408.40526618 -15.19168328 404.10029679 -15.1950407 398.47147751 C-15.19679374 397.80825054 -15.19854678 397.14502358 -15.20035294 396.46169883 C-15.20501108 394.23557375 -15.20254791 392.00951404 -15.20011902 389.78338623 C-15.20198709 388.1726877 -15.20428777 386.56198963 -15.20698434 384.95129228 C-15.21310933 380.52194402 -15.21296792 376.09261461 -15.21178997 371.66326308 C-15.21158613 366.88739845 -15.21710307 362.11153991 -15.22184753 357.3356781 C-15.23015865 347.97733231 -15.23290259 338.61899281 -15.23345991 329.26064363 C-15.23393489 321.6540497 -15.2359887 314.04745784 -15.23916054 306.44086456 C-15.24796863 284.87902161 -15.25257971 263.31718364 -15.25183006 241.75533888 C-15.25179011 240.59261513 -15.25175015 239.42989139 -15.25170898 238.23193359 C-15.2516681 237.06779152 -15.25162722 235.90364945 -15.2515851 234.70423034 C-15.25117866 215.83806226 -15.2607473 196.97191415 -15.27484735 178.10575184 C-15.28920795 158.73826614 -15.2961177 139.37079017 -15.29525357 120.003299 C-15.29492148 109.12829702 -15.29767401 98.25331597 -15.30843163 87.37831879 C-15.31753249 78.11871217 -15.3197153 68.85913595 -15.3129222 59.59952679 C-15.30965482 54.87543419 -15.3096082 50.15139993 -15.31827545 45.42731285 C-15.32613176 41.10071688 -15.32471789 36.77422561 -15.31599132 32.44763222 C-15.31445441 30.88437436 -15.31627969 29.32110872 -15.3218514 27.75786003 C-15.38360886 9.19788634 -15.38360886 9.19788634 -11.62890625 2.66796875 C-8.307149 -0.52091821 -4.34554964 0.02504717 0 0 Z " fill="#FE841A" transform="translate(80.06640625,63.83203125)"/>
<path d="M0 0 C0.91007812 0.00902344 1.82015625 0.01804688 2.7578125 0.02734375 C3.45648438 0.03894531 4.15515625 0.05054688 4.875 0.0625 C5.535 2.7025 6.195 5.3425 6.875 8.0625 C8.525 8.0625 10.175 8.0625 11.875 8.0625 C11.875 7.4025 11.875 6.7425 11.875 6.0625 C12.535 6.0625 13.195 6.0625 13.875 6.0625 C14.205 4.4125 14.535 2.7625 14.875 1.0625 C16.525 0.7325 18.175 0.4025 19.875 0.0625 C20.85780415 1.66444071 21.83611717 3.26913742 22.8125 4.875 C23.35777344 5.76832031 23.90304687 6.66164062 24.46484375 7.58203125 C25.875 10.0625 25.875 10.0625 26.875 13.0625 C27.865 13.3925 28.855 13.7225 29.875 14.0625 C30.535 9.4425 31.195 4.8225 31.875 0.0625 C33.463125 0.041875 35.05125 0.02125 36.6875 0 C37.58082031 -0.01160156 38.47414063 -0.02320313 39.39453125 -0.03515625 C41.875 0.0625 41.875 0.0625 44.875 1.0625 C44.875 1.7225 44.875 2.3825 44.875 3.0625 C45.47183594 3.16046875 46.06867188 3.2584375 46.68359375 3.359375 C51.21794575 4.8142473 53.85494064 9.61087707 56.5 13.375 C58.24295496 16.78168469 59.62797425 20.28821249 61.0078125 23.85546875 C61.8345443 26.05587257 61.8345443 26.05587257 62.875 28.0625 C64.85512857 40.17919471 65.06168366 52.63073708 65.0625 64.875 C65.0632251 66.06730225 65.0639502 67.25960449 65.06469727 68.48803711 C65.00985863 76.92764137 65.00985863 76.92764137 63.875 78.0625 C64.535 78.3925 65.195 78.7225 65.875 79.0625 C65.20832088 83.71930344 64.72016563 87.12836956 61.5 90.6875 C58.875 92.0625 58.875 92.0625 56.5625 91.8125 C56.005625 91.565 55.44875 91.3175 54.875 91.0625 C54.875 90.4025 54.875 89.7425 54.875 89.0625 C54.215 89.0625 53.555 89.0625 52.875 89.0625 C52.545 87.4125 52.215 85.7625 51.875 84.0625 C51.215 84.0625 50.555 84.0625 49.875 84.0625 C49.875 69.2125 49.875 54.3625 49.875 39.0625 C49.215 39.0625 48.555 39.0625 47.875 39.0625 C47.545 38.0725 47.215 37.0825 46.875 36.0625 C46.215 36.0625 45.555 36.0625 44.875 36.0625 C44.875 36.95557861 44.875 37.84865723 44.875 38.76879883 C44.875 48.86669922 44.875 58.96459961 44.875 69.0625 C44.87899278 70.39903924 44.883541 71.73557687 44.88845825 73.07211304 C44.92865065 84.37857056 44.95894575 95.6850091 44.97862434 106.99152184 C44.98907553 112.79678744 45.00326707 118.60199458 45.02587891 124.40722656 C45.04759742 130.01924846 45.05956579 135.63121402 45.06475449 141.24327469 C45.06845002 143.38270583 45.07566642 145.52213388 45.08646011 147.66154099 C45.10096313 150.65382332 45.1029785 153.6458718 45.10205078 156.63818359 C45.10924133 157.52251572 45.11643188 158.40684784 45.12384033 159.31797791 C45.10917006 163.68657386 44.92597272 167.08671259 42.875 171.0625 C42.215 171.0625 41.555 171.0625 40.875 171.0625 C40.58625 171.701875 40.2975 172.34125 40 173 C38.875 175.0625 38.875 175.0625 36.875 176.0625 C28.09837043 176.49413752 28.09837043 176.49413752 23.875 174.0625 C23.545 173.0725 23.215 172.0825 22.875 171.0625 C22.215 171.0625 21.555 171.0625 20.875 171.0625 C19.32741783 167.96733565 19.7454011 164.70393926 19.76147461 161.30810547 C19.76132858 160.50802063 19.76118256 159.70793579 19.7610321 158.88360596 C19.7617302 156.23227247 19.76951779 153.58100875 19.77734375 150.9296875 C19.7792083 149.09408608 19.78063203 147.25848417 19.78163147 145.42288208 C19.78545377 140.58626945 19.79528161 135.74968673 19.80633545 130.91308594 C19.81655574 125.97982183 19.82113042 121.04655289 19.82617188 116.11328125 C19.83690412 106.42967434 19.85397711 96.74608965 19.875 87.0625 C18.39 87.5575 18.39 87.5575 16.875 88.0625 C16.87135437 89.04920181 16.86770874 90.03590363 16.86395264 91.05250549 C16.82695987 100.3658401 16.76914046 109.67884536 16.69109726 118.99192905 C16.65164209 123.77954512 16.619444 128.5669778 16.60400391 133.35473633 C16.5888244 137.97800015 16.55435593 142.60075974 16.50669098 147.22379875 C16.49189051 148.98472643 16.48395975 150.7457261 16.48311615 152.50671577 C16.48074066 154.97971034 16.45361606 157.45131797 16.42089844 159.92407227 C16.4259288 160.64696442 16.43095917 161.36985657 16.43614197 162.11465454 C16.32494513 167.57150945 14.886153 170.6645439 11.875 175.0625 C7.72038707 177.13980647 2.4773815 176.30634066 -2 175.625 C-5.49908842 173.05214087 -6.13356109 169.17425726 -7.125 165.0625 C-7.49938683 161.77398217 -7.50679585 158.53519846 -7.46557617 155.22827148 C-7.46601425 154.29061447 -7.46645233 153.35295746 -7.46690369 152.3868866 C-7.4648306 149.31890293 -7.44156981 146.25148075 -7.41796875 143.18359375 C-7.41236753 141.04411619 -7.40809992 138.90463477 -7.40510559 136.76515198 C-7.39369828 131.1575136 -7.36426663 125.5501115 -7.33099365 119.94256592 C-7.30020386 114.21109207 -7.28658126 108.47957974 -7.27148438 102.74804688 C-7.23939288 91.51942793 -7.18824654 80.29098368 -7.125 69.0625 C-2.175 68.7325 2.775 68.4025 7.875 68.0625 C2.925 67.7325 -2.025 67.4025 -7.125 67.0625 C-7.125 45.2825 -7.125 23.5025 -7.125 1.0625 C-4.60024538 -0.19987731 -2.81299534 -0.03606404 0 0 Z " fill="#050100" transform="translate(260.125,205.9375)"/>
<path d="M0 0 C8.60418872 -0.06129041 8.60418872 -0.06129041 12.8125 1 C21.69535489 2.89573123 29.98348909 2.0431879 38.859375 0.4375 C42 0 42 0 49 0 C49 33.33 49 66.66 49 101 C48.34 101 47.68 101 47 101 C46.71125 101.639375 46.4225 102.27875 46.125 102.9375 C45 105 45 105 43 106 C34.22337043 106.43163752 34.22337043 106.43163752 30 104 C29.67 103.01 29.34 102.02 29 101 C28.34 101 27.68 101 27 101 C25.45241783 97.90483565 25.8704011 94.64143926 25.88647461 91.24560547 C25.88632858 90.44552063 25.88618256 89.64543579 25.8860321 88.82110596 C25.8867302 86.16977247 25.89451779 83.51850875 25.90234375 80.8671875 C25.9042083 79.03158608 25.90563203 77.19598417 25.90663147 75.36038208 C25.91045377 70.52376945 25.92028161 65.68718673 25.93133545 60.85058594 C25.94155574 55.91732183 25.94613042 50.98405289 25.95117188 46.05078125 C25.96190412 36.36717434 25.97897711 26.68358965 26 17 C25.01 17.33 24.02 17.66 23 18 C22.99635437 18.98670181 22.99270874 19.97340363 22.98895264 20.99000549 C22.95195987 30.3033401 22.89414046 39.61634536 22.81609726 48.92942905 C22.77664209 53.71704512 22.744444 58.5044778 22.72900391 63.29223633 C22.7138244 67.91550015 22.67935593 72.53825974 22.63169098 77.16129875 C22.61689051 78.92222643 22.60895975 80.6832261 22.60811615 82.44421577 C22.60574066 84.91721034 22.57861606 87.38881797 22.54589844 89.86157227 C22.5509288 90.58446442 22.55595917 91.30735657 22.56114197 92.05215454 C22.44994513 97.50900945 21.011153 100.6020439 18 105 C13.82164842 107.08917579 8.47055502 106.37546086 4.0625 105.25 C1.56460746 103.73612574 1.08422905 102.67863632 0 100 C-0.24609566 97.94607162 -0.24609566 97.94607162 -0.24050903 95.72259521 C-0.24325836 94.87568115 -0.24600769 94.02876709 -0.24884033 93.15618896 C-0.24164978 92.23549622 -0.23445923 91.31480347 -0.22705078 90.36621094 C-0.22734283 89.39026978 -0.22763489 88.41432861 -0.22793579 87.40881348 C-0.22654277 84.18391012 -0.2109827 80.95923798 -0.1953125 77.734375 C-0.19158228 75.4980685 -0.18873535 73.26176037 -0.18673706 71.02545166 C-0.17910137 65.13996874 -0.15945333 59.25458454 -0.1373291 53.36914062 C-0.11686936 47.36329484 -0.10773506 41.35743309 -0.09765625 35.3515625 C-0.07620746 23.56766496 -0.0420722 11.78384069 0 0 Z " fill="#060101" transform="translate(254,276)"/>
<path d="M0 0 C0.99 0 1.98 0 3 0 C3 0.66 3 1.32 3 2 C3.59683594 2.09796875 4.19367188 2.1959375 4.80859375 2.296875 C9.34294575 3.7517473 11.97994064 8.54837707 14.625 12.3125 C16.36795496 15.71918469 17.75297425 19.22571249 19.1328125 22.79296875 C19.9595443 24.99337257 19.9595443 24.99337257 21 27 C22.98012857 39.11669471 23.18668366 51.56823708 23.1875 63.8125 C23.1882251 65.00480225 23.1889502 66.19710449 23.18969727 67.42553711 C23.13485863 75.86514137 23.13485863 75.86514137 22 77 C22.66 77.33 23.32 77.66 24 78 C23.33332088 82.65680344 22.84516563 86.06586956 19.625 89.625 C17 91 17 91 14.6875 90.75 C14.130625 90.5025 13.57375 90.255 13 90 C13 89.34 13 88.68 13 88 C12.34 88 11.68 88 11 88 C10.67 86.35 10.34 84.7 10 83 C9.34 83 8.68 83 8 83 C8 68.15 8 53.3 8 38 C7.34 38 6.68 38 6 38 C5.67 37.01 5.34 36.02 5 35 C4.34 35 3.68 35 3 35 C3 35.89307861 3 36.78615723 3 37.70629883 C3 47.80419922 3 57.90209961 3 68 C3.00399425 69.34102532 3.00854258 70.68204903 3.01345825 72.02307129 C3.05361474 83.35958423 3.08392772 94.69607833 3.10362434 106.03264618 C3.11408506 111.85366311 3.12829369 117.67462195 3.15087891 123.49560547 C3.17256365 129.12058587 3.18455862 134.74551021 3.18975449 140.37052917 C3.19345613 142.51719548 3.20068429 144.66385864 3.21146011 146.8105011 C3.22591824 149.80798051 3.2279804 152.80522586 3.22705078 155.80273438 C3.23424133 156.69425705 3.24143188 157.58577972 3.24884033 158.50431824 C3.246091 159.32027969 3.24334167 160.13624115 3.24050903 160.97692871 C3.24235262 161.68557823 3.24419621 162.39422775 3.24609566 163.1243515 C3 165 3 165 1 168 C1 135.33 1 102.66 1 69 C-3.95 69.99 -3.95 69.99 -9 71 C-12.35856379 71.42513466 -15.63083646 71.78196476 -19 72 C-19.80566406 72.05414063 -20.61132812 72.10828125 -21.44140625 72.1640625 C-30.75585866 72.47691434 -38.37951741 70.60341376 -48 69 C-48 100.35 -48 131.7 -48 164 C-48.33 164 -48.66 164 -49 164 C-49 132.32 -49 100.64 -49 68 C-40.09 67.67 -31.18 67.34 -22 67 C-17.545 66.01 -17.545 66.01 -13 65 C-9.27734375 64.8046875 -9.27734375 64.8046875 -5.9375 64.875 C-4.24947266 64.90207031 -4.24947266 64.90207031 -2.52734375 64.9296875 C-1.69332031 64.95289063 -0.85929687 64.97609375 0 65 C-0.11863817 60.53409295 -0.24291148 56.06838827 -0.37231445 51.6027832 C-0.41551548 50.08492245 -0.45720048 48.56701774 -0.49731445 47.04907227 C-0.55537812 44.86200741 -0.61896656 42.67516082 -0.68359375 40.48828125 C-0.73858032 38.51661987 -0.73858032 38.51661987 -0.79467773 36.50512695 C-0.9683125 33.54094812 -1.38384097 30.89104271 -2 28 C-2.20641068 24.91806302 -2.18508352 21.83826451 -2.1875 18.75 C-2.19974609 17.94175781 -2.21199219 17.13351563 -2.22460938 16.30078125 C-2.23823225 10.62458268 -1.45318374 5.48340155 0 0 Z " fill="#0B0201" transform="translate(302,207)"/>
<path d="M0 0 C63.18946044 -0.71969773 126.32582207 3.81488462 189.36550903 7.69999695 C222.37802423 9.73384157 255.39422945 11.6537165 288.42103577 13.44039345 C292.22471505 13.64619993 296.02838002 13.85226942 299.83203125 14.05859375 C300.57091835 14.09866673 301.30980545 14.1387397 302.07108307 14.18002701 C318.30064752 15.06144943 334.52623863 16.00793796 350.74951172 16.99853516 C360.30868893 17.5779919 369.86463653 18.09911214 379.43359375 18.48828125 C381.25114756 18.56605112 383.06869335 18.64400893 384.88623047 18.72216797 C388.20913331 18.86463649 391.53170369 18.98474125 394.85595703 19.09033203 C403.87658004 19.43594627 412.8453954 19.8453954 419.5625 26.5625 C421.79273431 30.34420166 422.13039277 33.20277296 422.15821838 37.51399231 C422.1729035 39.24540514 422.1729035 39.24540514 422.18788528 41.011796 C422.19363949 42.28641162 422.19939369 43.56102724 422.20532227 44.87426758 C422.21490936 46.23827109 422.22490902 47.60227176 422.23528671 48.96626949 C422.26255928 52.72785618 422.28349746 56.48945551 422.30327249 60.25108814 C422.3210093 63.48337274 422.34226498 66.71563043 422.36352271 69.9478935 C422.4337276 80.63628437 422.49172184 91.32472784 422.54769325 102.01320124 C422.56735625 105.73060043 422.58782376 109.447995 422.60829079 113.16538984 C422.76735304 142.11014779 422.89350629 171.05500322 423 200 C423.00388701 201.05126194 423.00777403 202.10252388 423.01177883 203.18564224 C423.11317985 230.72712883 423.19047456 258.26856075 423.22709137 285.81021303 C423.22843754 286.82154238 423.2297837 287.83287172 423.23117065 288.87484741 C423.2331637 290.38648416 423.2331637 290.38648416 423.23519701 291.92865902 C423.24526953 299.03967071 423.26294022 306.15063948 423.28372192 313.2616272 C423.30892648 321.95004843 423.32335412 330.63840638 423.32383865 339.32686555 C423.32432482 343.77436767 423.32955192 348.22172855 423.34760094 352.66919708 C423.36397229 356.75016671 423.3663366 360.83089762 423.35758102 364.91188848 C423.35683585 366.38975663 423.36116576 367.86763788 423.37108433 369.34547293 C423.45945222 383.31181027 423.45945222 383.31181027 420 389 C419.34 389.33 418.68 389.66 418 390 C418 388.68 418 387.36 418 386 C418.66 386 419.32 386 420 386 C420 268.85 420 151.7 420 31 C419.01 30.67 418.02 30.34 417 30 C416.67 28.35 416.34 26.7 416 25 C406.70246228 23.19232882 397.4551333 22.4558435 388.015625 21.96484375 C386.50490732 21.88107299 384.99422662 21.79663298 383.48358154 21.71156311 C379.54153264 21.49098183 375.59912382 21.27777529 371.65655518 21.06671143 C365.33472504 20.72728323 359.01346071 20.37762474 352.69231415 20.02572823 C350.50125398 19.90499577 348.31001235 19.78816637 346.11871338 19.67185974 C335.10658345 19.0748553 335.10658345 19.0748553 330.51831055 18.46118164 C326.7450033 17.96657492 323.05767456 17.80791008 319.25390625 17.71875 C317.82617114 17.68101751 316.39843678 17.6432563 314.97070312 17.60546875 C312.74978581 17.55152335 310.52883744 17.49921995 308.30786133 17.44775391 C306.14392103 17.39623714 303.980188 17.33899001 301.81640625 17.28125 C299.88970093 17.23581055 299.88970093 17.23581055 297.92407227 17.18945312 C295 17 295 17 294 16 C289.06128781 15.46758409 284.08465286 15.27028665 279.125 15 C277.96152039 14.93463547 277.96152039 14.93463547 276.77453613 14.86795044 C259.6675998 13.9231635 242.5515321 13.59659497 225.42236328 13.34179688 C214.92735143 13.18243974 204.44141091 12.95350265 193.953125 12.53515625 C192.97100037 12.49756699 191.98887573 12.45997772 190.97698975 12.42124939 C186.33614765 12.22310701 181.81813777 11.84818701 177.21237183 11.22166443 C172.08925312 10.7083632 166.92160397 10.7766842 161.77734375 10.71875 C159.88816978 10.69113586 159.88816978 10.69113586 157.96083069 10.66296387 C153.27426356 10.59456299 148.58762072 10.53391379 143.90093994 10.47393799 C139.29716307 10.4146156 134.69351174 10.34859317 130.08984375 10.28125 C128.88238998 10.26767456 127.67493622 10.25409912 126.43089294 10.2401123 C120.85535029 10.15797896 115.49313457 9.97024472 110 9 C100.98912669 7.75578017 92.05370164 6.75650257 82.96508789 6.34179688 C78.10057099 6.10057099 78.10057099 6.10057099 77 5 C74.64768393 4.79072127 72.3186339 4.64339229 69.9609375 4.53515625 C69.22381531 4.49755692 68.48669312 4.45995758 67.72723389 4.42121887 C65.27668766 4.29724786 62.82586909 4.17990018 60.375 4.0625 C58.67819975 3.97783407 56.98142259 3.89270436 55.28466797 3.80712891 C51.71006992 3.62744041 48.13535897 3.45027963 44.56054688 3.27490234 C38.97223588 2.99992001 33.38450568 2.71422283 27.796875 2.42578125 C26.89663605 2.37931961 25.99639709 2.33285797 25.06887817 2.2849884 C23.29211309 2.19325999 21.51534915 2.10150928 19.73858643 2.00973511 C15.55756441 1.79419586 11.37644348 1.58060112 7.1953125 1.3671875 C6.46278259 1.32978958 5.73025269 1.29239166 4.9755249 1.25386047 C3.31701826 1.1692079 1.65850941 1.0845984 0 1 C0 0.67 0 0.34 0 0 Z " fill="#F6B57E" transform="translate(73,64)"/>
<path d="M0 0 C5.47265396 2.52331949 9.70707791 5.31556463 13.421875 10.078125 C14.296875 13.328125 14.296875 13.328125 14.421875 17.078125 C14.53015625 18.25955078 14.53015625 18.25955078 14.640625 19.46484375 C15.04251226 26.02565327 13.73815673 30.11493127 9.421875 35.078125 C6.0568494 38.87290086 3.15749954 40.7752094 -1.890625 41.65625 C-8.96022339 41.99144648 -14.1681579 41.28840588 -19.8046875 36.8671875 C-24.21486444 32.41815437 -26.71055975 27.12758963 -26.765625 20.828125 C-26.66884754 14.20424546 -25.43176447 8.80731217 -20.578125 4.078125 C-13.94492164 -0.75692082 -7.92193611 -2.83269231 0 0 Z " fill="#030101" transform="translate(284.578125,158.921875)"/>
<path d="M0 0 C0.66 0 1.32 0 2 0 C2.05840224 4.18744075 2.09373166 8.37477565 2.125 12.5625 C2.14175781 13.74392578 2.15851563 14.92535156 2.17578125 16.14257812 C2.20999844 22.25034641 1.75074229 27.13177122 0 33 C-0.93234578 40.74396213 -1.06641279 48.53024583 -1.17578125 56.3203125 C-1.18785614 57.12031677 -1.19993103 57.92032104 -1.21237183 58.74456787 C-1.26063449 62.04946619 -1.30841449 65.35395333 -1.32592773 68.65917969 C-1.34135386 71.10932329 -1.38143007 73.55804445 -1.42578125 76.0078125 C-1.42387283 76.75257843 -1.42196442 77.49734436 -1.41999817 78.26467896 C-1.50293205 81.76127265 -1.74303557 83.66562631 -3.90209961 86.47509766 C-7.32330227 88.96186966 -9.87486297 88.27500914 -14 88 C-16.45863891 83.66549256 -17.38959959 80.5193056 -17.43359375 75.546875 C-17.44487305 74.30010986 -17.45615234 73.05334473 -17.46777344 71.76879883 C-17.45978619 70.42918502 -17.4496464 69.08958255 -17.4375 67.75 C-17.43512329 67.06892181 -17.43274658 66.38784363 -17.43029785 65.68612671 C-17.32439529 46.19236981 -16.48139865 22.71025814 -4.8125 6.3125 C-4.11769531 5.31863281 -3.42289063 4.32476562 -2.70703125 3.30078125 C-1 1 -1 1 0 0 Z " fill="#050101" transform="translate(248,209)"/>
<path d="M0 0 C0.33 0 0.66 0 1 0 C1.33 132.99 1.66 265.98 2 403 C3.32 403.33 4.64 403.66 6 404 C6 404.66 6 405.32 6 406 C24.68356302 406.18158971 43.32951988 405.61829316 62 405 C62 404.34 62 403.68 62 403 C81.47 403 100.94 403 121 403 C121 403.33 121 403.66 121 404 C96.92629198 405.58867689 72.85195816 407.09514353 48.75 408.1875 C47.39124252 408.25127838 47.39124252 408.25127838 46.0050354 408.31634521 C40.0044795 408.59551082 34.00420667 408.81709815 28 409 C27.09499756 409.0322467 26.18999512 409.06449341 25.25756836 409.09771729 C22.53112417 409.18806857 19.80553682 409.24845879 17.078125 409.30078125 C16.25439392 409.33125046 15.43066284 409.36171967 14.58197021 409.39311218 C9.23075293 409.45247983 6.22780484 408.58491699 2 405 C-1.17726963 400.23409556 -1.12506789 395.9276895 -1.12584114 390.29512882 C-1.12729458 389.63100307 -1.12874802 388.96687732 -1.13024551 388.28262654 C-1.13389981 386.05347136 -1.13042171 383.8243848 -1.12698364 381.5952301 C-1.12813569 379.98239368 -1.12972377 378.36955752 -1.13171089 376.75672191 C-1.1358928 372.32157988 -1.13381862 367.88645931 -1.13072467 363.45131719 C-1.12846617 358.66937639 -1.13195245 353.88743933 -1.13470459 349.10549927 C-1.13915653 339.73612686 -1.13818834 330.36676246 -1.13529195 320.99738974 C-1.13303553 313.38361924 -1.13272643 305.76985099 -1.13381577 298.15608025 C-1.13404561 296.53194556 -1.13404561 296.53194556 -1.13428011 294.87500007 C-1.13459983 292.67553513 -1.13492404 290.47607018 -1.1352527 288.27660524 C-1.13810584 267.64076245 -1.13482314 247.00492409 -1.12945233 226.36908203 C-1.12498508 208.65645285 -1.1257599 190.94383023 -1.13037109 173.23120117 C-1.13572087 152.67182127 -1.1378305 132.11244526 -1.13475883 111.55306476 C-1.13444027 109.36128835 -1.1341259 107.16951193 -1.13381577 104.97773552 C-1.13366149 103.89928762 -1.13350721 102.82083971 -1.13334826 101.70971157 C-1.13248427 94.10419339 -1.13394347 86.49867767 -1.13629532 78.89315987 C-1.13909801 69.62578807 -1.13834514 60.35842474 -1.13301457 51.09105391 C-1.13038383 46.36127376 -1.12936194 41.63150773 -1.13266373 36.90172768 C-1.13563955 32.57346414 -1.1340123 28.24522785 -1.12868617 23.91696679 C-1.1275675 22.34972538 -1.12814104 20.78248168 -1.13056196 19.21524174 C-1.13359767 17.08703241 -1.13048855 14.95891674 -1.12584114 12.83071232 C-1.12567879 11.64793581 -1.12551644 10.4651593 -1.12534916 9.24654108 C-1.00315341 6.08167339 -0.59439805 3.10775343 0 0 Z " fill="#F8C18F" transform="translate(66,72)"/>
<path d="M0 0 C0.99 0 1.98 0 3 0 C3 0.66 3 1.32 3 2 C3.5775 2.0825 4.155 2.165 4.75 2.25 C7.6159304 3.20531013 8.9990764 4.78469173 11 7 C10.67 7.66 10.34 8.32 10 9 C9.01 8.67 8.02 8.34 7 8 C4.83750416 16.34105537 4.17253947 22.6943347 7 31 C7.07522969 33.33212027 7.09325876 35.6685311 7 38 C6.34 37.01 5.68 36.02 5 35 C4.34 35 3.68 35 3 35 C3 35.89307861 3 36.78615723 3 37.70629883 C3 47.80419922 3 57.90209961 3 68 C3.00399425 69.34102532 3.00854258 70.68204903 3.01345825 72.02307129 C3.05361474 83.35958423 3.08392772 94.69607833 3.10362434 106.03264618 C3.11408506 111.85366311 3.12829369 117.67462195 3.15087891 123.49560547 C3.17256365 129.12058587 3.18455862 134.74551021 3.18975449 140.37052917 C3.19345613 142.51719548 3.20068429 144.66385864 3.21146011 146.8105011 C3.22591824 149.80798051 3.2279804 152.80522586 3.22705078 155.80273438 C3.23424133 156.69425705 3.24143188 157.58577972 3.24884033 158.50431824 C3.246091 159.32027969 3.24334167 160.13624115 3.24050903 160.97692871 C3.24235262 161.68557823 3.24419621 162.39422775 3.24609566 163.1243515 C3 165 3 165 1 168 C1 135.33 1 102.66 1 69 C-3.95 69.99 -3.95 69.99 -9 71 C-12.35856379 71.42513466 -15.63083646 71.78196476 -19 72 C-19.80566406 72.05414063 -20.61132812 72.10828125 -21.44140625 72.1640625 C-30.75585866 72.47691434 -38.37951741 70.60341376 -48 69 C-48 100.35 -48 131.7 -48 164 C-48.33 164 -48.66 164 -49 164 C-49 132.32 -49 100.64 -49 68 C-40.09 67.67 -31.18 67.34 -22 67 C-17.545 66.01 -17.545 66.01 -13 65 C-9.27734375 64.8046875 -9.27734375 64.8046875 -5.9375 64.875 C-4.24947266 64.90207031 -4.24947266 64.90207031 -2.52734375 64.9296875 C-1.69332031 64.95289063 -0.85929687 64.97609375 0 65 C-0.11863817 60.53409295 -0.24291148 56.06838827 -0.37231445 51.6027832 C-0.41551548 50.08492245 -0.45720048 48.56701774 -0.49731445 47.04907227 C-0.55537812 44.86200741 -0.61896656 42.67516082 -0.68359375 40.48828125 C-0.73858032 38.51661987 -0.73858032 38.51661987 -0.79467773 36.50512695 C-0.9683125 33.54094812 -1.38384097 30.89104271 -2 28 C-2.20641068 24.91806302 -2.18508352 21.83826451 -2.1875 18.75 C-2.19974609 17.94175781 -2.21199219 17.13351563 -2.22460938 16.30078125 C-2.23823225 10.62458268 -1.45318374 5.48340155 0 0 Z " fill="#873A07" transform="translate(302,207)"/>
<path d="M0 0 C-4.48208837 3.29426605 -8.42505437 3.65352428 -13.79418945 4.06420898 C-14.66922025 4.14099853 -15.54425104 4.21778807 -16.44579792 4.29690456 C-19.29630492 4.5435437 -22.14795495 4.77190482 -25 5 C-26.90286178 5.16207105 -28.805643 5.32509066 -30.70834351 5.48904419 C-36.90086382 6.01496732 -43.09614877 6.50033699 -49.29296875 6.97265625 C-50.42824697 7.05929094 -51.5635252 7.14592564 -52.7332058 7.23518562 C-77.1890235 9.08002707 -101.65768034 10.18683381 -126.16149902 11.15344238 C-138.51635176 11.64152576 -150.86964174 12.166855 -163.22265625 12.69921875 C-165.0641305 12.7784149 -165.0641305 12.7784149 -166.94280624 12.85921097 C-190.7292911 13.88873966 -214.49107426 15.21572165 -238.25 16.75 C-239.50114279 16.83061235 -239.50114279 16.83061235 -240.77756119 16.91285324 C-254.87183607 17.82261579 -268.96341037 18.76638814 -283.04867554 19.80741882 C-286.50589429 20.03301085 -289.91125365 20.10098607 -293.375 20.0625 C-294.45523438 20.05347656 -295.53546875 20.04445313 -296.6484375 20.03515625 C-297.42445313 20.02355469 -298.20046875 20.01195312 -299 20 C-299 19.67 -299 19.34 -299 19 C-297.31970703 18.80083984 -297.31970703 18.80083984 -295.60546875 18.59765625 C-294.13279271 18.41943431 -292.66013753 18.24103989 -291.1875 18.0625 C-290.44951172 17.97548828 -289.71152344 17.88847656 -288.95117188 17.79882812 C-285.83266879 17.41783454 -282.98891878 16.99630626 -280 16 C-277.23555103 15.80115431 -274.48676523 15.64917536 -271.71875 15.53515625 C-270.05597638 15.45665936 -268.39321634 15.37787452 -266.73046875 15.29882812 C-264.11032758 15.1790151 -261.4901316 15.06207958 -258.86962891 14.95043945 C-256.33972369 14.840929 -253.81056012 14.72004882 -251.28125 14.59765625 C-250.49681519 14.56736832 -249.71238037 14.53708038 -248.9041748 14.50587463 C-245.1363102 14.31686357 -243.20563101 14.13708734 -240 12 C-237.94914246 11.72825623 -237.94914246 11.72825623 -235.56713867 11.69702148 C-234.67157761 11.68037949 -233.77601654 11.66373749 -232.85331726 11.64659119 C-231.88465225 11.63817703 -230.91598724 11.62976288 -229.91796875 11.62109375 C-228.40931999 11.59560204 -228.40931999 11.59560204 -226.87019348 11.56959534 C-223.64269359 11.51642161 -220.41520274 11.47624302 -217.1875 11.4375 C-212.97256532 11.37893702 -208.75775273 11.31462564 -204.54296875 11.24609375 C-203.52609985 11.2301265 -202.50923096 11.21415924 -201.46154785 11.19770813 C-194.89844161 11.07917741 -188.40220826 10.75079874 -181.85961914 10.21166992 C-177.77648263 9.90943485 -173.71684564 9.8880632 -169.625 9.9375 C-168.50351562 9.94426758 -168.50351562 9.94426758 -167.359375 9.95117188 C-165.57287923 9.96262377 -163.78642644 9.98053531 -162 10 C-162 9.34 -162 8.68 -162 8 C-161.16602188 7.99413376 -160.33204376 7.98826752 -159.47279358 7.98222351 C-151.48954262 7.92354731 -143.50654958 7.85106881 -135.52355289 7.76428509 C-131.42254273 7.72015737 -127.32161896 7.68078776 -123.22045898 7.65356445 C-98.59508278 7.49352656 -98.59508278 7.49352656 -74.10658264 5.04862976 C-64.08152905 3.57760469 -54.10802212 3.72898054 -44 4 C-44 3.01 -44 2.02 -44 1 C-42.45675049 1.01571045 -42.45675049 1.01571045 -40.88232422 1.03173828 C-37.04691072 1.06807599 -33.2115123 1.09095038 -29.37597656 1.10986328 C-27.71937497 1.11988957 -26.06279093 1.13351406 -24.40625 1.15087891 C-22.01818495 1.17527621 -19.63035492 1.18651694 -17.2421875 1.1953125 C-16.50757294 1.20563507 -15.77295837 1.21595764 -15.01608276 1.22659302 C-9.81403956 1.2277152 -4.76730389 -1.5891013 0 0 Z " fill="#F7A157" transform="translate(491,455)"/>
<path d="M0 0 C57.21056833 -0.65160101 114.39244642 3.01267083 171.46875 6.6015625 C175.50953835 6.85411177 179.54952145 7.08386429 183.59375 7.2734375 C184.4202002 7.3132373 185.24665039 7.35303711 186.09814453 7.39404297 C188.11461957 7.48788279 190.13150853 7.57273327 192.1484375 7.65625 C195.25085758 7.93313942 198.1350911 8.37256744 201.18359375 8.9609375 C207.32571767 10.13016109 213.45783434 10.65958713 219.6875 11.125 C221.33008789 11.25455078 221.33008789 11.25455078 223.00585938 11.38671875 C225.67022655 11.59614499 228.33487497 11.80049251 231 12 C231 12.33 231 12.66 231 13 C218.65684962 13.10748992 206.33477065 13.07129963 194 12.5625 C193.01708984 12.52326416 192.03417969 12.48402832 191.02148438 12.44360352 C187.13906197 12.26934937 183.35357779 12.05076496 179.50219727 11.49780273 C173.61634656 10.74076035 167.70333763 10.78548801 161.77734375 10.71875 C159.88816978 10.69113586 159.88816978 10.69113586 157.96083069 10.66296387 C153.27426356 10.59456299 148.58762072 10.53391379 143.90093994 10.47393799 C139.29716307 10.4146156 134.69351174 10.34859317 130.08984375 10.28125 C128.88238998 10.26767456 127.67493622 10.25409912 126.43089294 10.2401123 C120.85535029 10.15797896 115.49313457 9.97024472 110 9 C100.98912669 7.75578017 92.05370164 6.75650257 82.96508789 6.34179688 C78.10057099 6.10057099 78.10057099 6.10057099 77 5 C74.64768393 4.79072127 72.3186339 4.64339229 69.9609375 4.53515625 C69.22381531 4.49755692 68.48669312 4.45995758 67.72723389 4.42121887 C65.27668766 4.29724786 62.82586909 4.17990018 60.375 4.0625 C58.67819975 3.97783407 56.98142259 3.89270436 55.28466797 3.80712891 C51.71006992 3.62744041 48.13535897 3.45027963 44.56054688 3.27490234 C38.97223588 2.99992001 33.38450568 2.71422283 27.796875 2.42578125 C26.89663605 2.37931961 25.99639709 2.33285797 25.06887817 2.2849884 C23.29211309 2.19325999 21.51534915 2.10150928 19.73858643 2.00973511 C15.55756441 1.79419586 11.37644348 1.58060112 7.1953125 1.3671875 C6.46278259 1.32978958 5.73025269 1.29239166 4.9755249 1.25386047 C3.31701826 1.1692079 1.65850941 1.0845984 0 1 C0 0.67 0 0.34 0 0 Z " fill="#FAA55C" transform="translate(73,64)"/>
<path d="M0 0 C1.21888916 0.01232666 1.21888916 0.01232666 2.46240234 0.02490234 C3.41542236 0.0273999 4.36844238 0.02989746 5.3503418 0.0324707 C6.40568115 0.05833252 7.46102051 0.08419434 8.54833984 0.11083984 C10.21546021 0.13126343 10.21546021 0.13126343 11.91625977 0.15209961 C75.711356 1.273856 75.711356 1.273856 78.92333984 4.48583984 C81.6156976 4.72262701 84.2883214 4.9078201 86.98583984 5.04833984 C88.12375977 5.11311523 88.12375977 5.11311523 89.28466797 5.17919922 C91.16399422 5.28557618 93.04364228 5.38623918 94.92333984 5.48583984 C94.92333984 5.81583984 94.92333984 6.14583984 94.92333984 6.48583984 C94.36348389 6.510896 93.80362793 6.53595215 93.22680664 6.56176758 C90.6879268 6.6778773 88.14940431 6.80053564 85.61083984 6.92333984 C84.28922852 6.98231445 84.28922852 6.98231445 82.94091797 7.04248047 C82.09335938 7.084375 81.24580078 7.12626953 80.37255859 7.16943359 C79.59227295 7.20609131 78.8119873 7.24274902 78.00805664 7.28051758 C75.73004883 7.42709248 75.73004883 7.42709248 72.92333984 8.48583984 C72.42833984 7.49583984 72.42833984 7.49583984 71.92333984 6.48583984 C70.78380859 6.52064453 69.64427734 6.55544922 68.47021484 6.59130859 C57.03464331 6.8269048 46.28185764 5.71165601 35.01757812 3.82763672 C27.36949247 2.57940637 19.78048215 2.39795413 12.04833984 2.36083984 C11.22648193 2.35608643 10.40462402 2.35133301 9.55786133 2.34643555 C5.54805237 2.35755674 1.83623316 2.48781442 -2.07666016 3.48583984 C-3.22076521 6.918155 -3.20082956 9.54283803 -3.19970798 13.16440105 C-3.20143875 14.19274781 -3.20143875 14.19274781 -3.20320448 15.24186924 C-3.20586677 17.55593876 -3.20135215 19.86993972 -3.19691467 22.18400574 C-3.19735045 23.85301442 -3.19822549 25.52202303 -3.19950384 27.19103128 C-3.20174745 31.79049773 -3.19772932 36.38994105 -3.19272578 40.98940456 C-3.18841956 45.94440835 -3.18986782 50.89941076 -3.19062805 55.85441589 C-3.19115318 64.44367471 -3.18800756 73.03292594 -3.18239021 81.62218285 C-3.17427368 94.04090759 -3.17165983 106.45962867 -3.17040222 118.87835578 C-3.16821194 139.02543262 -3.16155251 159.17250543 -3.15209961 179.31958008 C-3.14292487 198.89412414 -3.13584434 218.46866711 -3.1315918 238.04321289 C-3.13132907 239.24917093 -3.13106635 240.45512898 -3.13079567 241.6976312 C-3.12949066 247.74738408 -3.12822694 253.79713696 -3.12698376 259.84688985 C-3.1166119 310.05987598 -3.09899424 360.27285771 -3.07666016 410.48583984 C-5.89352087 407.66897913 -5.32833974 405.89088718 -5.33113575 401.94149971 C-5.33594547 400.9166813 -5.33594547 400.9166813 -5.34085235 399.87115949 C-5.34921948 397.55897138 -5.34320487 395.24703779 -5.33735657 392.93484497 C-5.34037421 391.26954853 -5.34426173 389.60425348 -5.34894913 387.93896091 C-5.35928801 383.34494259 -5.35703243 378.75100179 -5.35276854 374.15697694 C-5.35031192 369.20936874 -5.3593022 364.26177974 -5.36680603 359.31417847 C-5.37958505 349.61418899 -5.38134273 339.91422715 -5.37900577 330.21423067 C-5.37722593 322.3329202 -5.37896505 314.45161815 -5.38323021 306.57030869 C-5.3838254 305.45048862 -5.38442059 304.33066855 -5.38503381 303.17691454 C-5.38624551 300.90231253 -5.38745964 298.62771052 -5.38867619 296.35310851 C-5.39956417 274.99961236 -5.39738335 253.64613199 -5.39129134 232.29263495 C-5.38612168 212.74066847 -5.39737671 193.1887518 -5.41638956 173.63679518 C-5.43574323 153.58124774 -5.44402827 133.52572389 -5.44026631 113.47016704 C-5.43835042 102.20235549 -5.44087934 90.93458634 -5.45498085 79.66678238 C-5.46686423 70.07390682 -5.46833391 60.48109975 -5.45619068 50.88822331 C-5.45028038 45.99057488 -5.44926161 41.09305193 -5.46119308 36.19541168 C-5.47197929 31.71594432 -5.46903589 27.23670829 -5.4549314 22.75725208 C-5.45226429 21.13275629 -5.45471351 19.50824279 -5.46266726 17.88376428 C-5.47269923 15.68284718 -5.46441597 13.48274578 -5.45139027 11.28186226 C-5.45144528 10.05720918 -5.4515003 8.8325561 -5.45155698 7.57079232 C-4.98334659 3.71798083 -4.00665889 0.93736788 0 0 Z " fill="#FB9D46" transform="translate(72.07666015625,64.51416015625)"/>
<path d="M0 0 C0.33 0 0.66 0 1 0 C1 21.78 1 43.56 1 66 C5.95 66 10.9 66 16 66 C20.01696543 66.28951102 23.99962655 66.58282884 28 67 C28 67.33 28 67.66 28 68 C19.09 68 10.18 68 1 68 C1.10821298 80.37873033 1.22034919 92.75740821 1.33933926 105.13603973 C1.39443883 110.88429409 1.44783764 116.63255365 1.49731445 122.38085938 C1.54514981 127.93111938 1.59749867 133.48132035 1.65294075 139.0315094 C1.67327771 141.14610824 1.69200462 143.26072321 1.70907402 145.37535095 C1.7333107 148.34339202 1.76333758 151.31132346 1.79467773 154.27929688 C1.8004332 155.14820557 1.80618866 156.01711426 1.81211853 156.91235352 C1.87318809 162.020332 2.27370459 166.94234329 3 172 C2.34 172 1.68 172 1 172 C-0.06542098 167.65024277 -0.15794822 163.40440049 -0.17358398 158.95263672 C-0.180271 158.15693268 -0.18695801 157.36122864 -0.19384766 156.54141235 C-0.20785686 154.81995014 -0.21976391 153.09846981 -0.22979546 151.37697983 C-0.24625085 148.65368744 -0.26948741 145.93053053 -0.29469299 143.20730591 C-0.36536607 135.46688608 -0.42571905 127.7264134 -0.47680664 119.98583984 C-0.50855843 115.24675102 -0.54981453 110.50782273 -0.59700203 105.76886368 C-0.61303357 103.96274821 -0.62534981 102.15659587 -0.63390923 100.35042953 C-0.64603415 97.82964451 -0.67016874 95.30923913 -0.69702148 92.78857422 C-0.69761063 92.04045471 -0.69819977 91.29233521 -0.69880676 90.52154541 C-0.75139018 86.80512414 -0.88360148 85.17459778 -3 82 C-3.99 83.98 -4.98 85.96 -6 88 C-6.66 87.67 -7.32 87.34 -8 87 C-7.505 86.505 -7.505 86.505 -7 86 C-6.85171029 83.42652375 -6.76474709 80.87670366 -6.71875 78.30078125 C-6.70034058 77.51414597 -6.68193115 76.72751068 -6.66296387 75.91703796 C-6.60404888 73.38227052 -6.55147308 70.84742873 -6.5 68.3125 C-5.86686441 37.97820462 -5.86686441 37.97820462 -3.96875 31.45703125 C-2.1228146 24.86972144 -2.55872331 17.88101176 -2.43359375 11.07617188 C-2.40394531 9.94115234 -2.37429687 8.80613281 -2.34375 7.63671875 C-2.31571289 6.08537231 -2.31571289 6.08537231 -2.28710938 4.50268555 C-2 2 -2 2 0 0 Z " fill="#CF6C1B" transform="translate(252,207)"/>
<path d="M0 0 C1.890625 0.2890625 1.890625 0.2890625 4 1 C7.1888545 7.14993369 8.01332873 13.13911372 7 20 C5.38908208 24.75251646 3.44855458 29.21791817 0.26953125 33.12890625 C-0.35888672 34.05509766 -0.35888672 34.05509766 -1 35 C-0.67 35.99 -0.34 36.98 0 38 C1.65 38.33 3.3 38.66 5 39 C5 39.66 5 40.32 5 41 C2.69 41 0.38 41 -2 41 C-1.95875 42.19625 -1.9175 43.3925 -1.875 44.625 C-1.86148292 48.42329953 -2.57990247 51.44975618 -4 55 C-5.796875 54.83984375 -5.796875 54.83984375 -8 54 C-9.703125 51.56640625 -9.703125 51.56640625 -11.25 48.5625 C-11.77078125 47.57378906 -12.2915625 46.58507812 -12.828125 45.56640625 C-14 43 -14 43 -14 41 C-16.475 41.495 -16.475 41.495 -19 42 C-19.33 43.65 -19.66 45.3 -20 47 C-20.66 47 -21.32 47 -22 47 C-22 47.66 -22 48.32 -22 49 C-24.475 49.495 -24.475 49.495 -27 50 C-28.49821059 46.62902617 -29 44.79557881 -29 41 C-34.94 41.495 -34.94 41.495 -41 42 C-40.34 41.01 -39.68 40.02 -39 39 C-35.875 38.8125 -35.875 38.8125 -33 39 C-32.63208819 34.03319059 -32.91196059 30.7936914 -35 26.25 C-37.47245334 20.59492055 -37.7986297 15.10115942 -37 9 C-36.34 8.01 -35.68 7.02 -35 6 C-35.03480469 6.85722656 -35.06960938 7.71445313 -35.10546875 8.59765625 C-35.30343648 16.95943612 -35.23865621 22.24997702 -29.625 28.75 C-23.62219309 33.89526306 -19.29878441 34.65721022 -11.45703125 34.4765625 C-5.45762585 33.64952582 -2.43700623 30.8617416 1.3671875 26.39453125 C5.43354823 20.49129723 4.23500127 13.91401574 3.6875 7.125 C2.99195654 3.9634388 2.16978589 2.35846293 0 0 Z " fill="#EA7818" transform="translate(294,165)"/>
<path d="M0 0 C-1.75 3.875 -1.75 3.875 -4 5 C-4.33 136.34 -4.66 267.68 -5 403 C-5.33 403 -5.66 403 -6 403 C-6.09148785 352.23786445 -6.16200429 301.4757372 -6.20426132 250.71353547 C-6.20926435 244.7252019 -6.21444162 238.73686849 -6.21972656 232.74853516 C-6.2207758 231.5563291 -6.22182505 230.36412305 -6.22290608 229.13578954 C-6.24032739 209.81325229 -6.27187456 190.49076247 -6.30861118 171.16825339 C-6.34597262 151.35233958 -6.36822568 131.53645068 -6.37635398 111.72050309 C-6.38185172 99.48580527 -6.39923682 87.25124153 -6.43166587 75.01658496 C-6.45275456 66.6351279 -6.45921288 58.2537405 -6.45400551 49.87225881 C-6.45143491 45.03128423 -6.45546862 40.19054447 -6.4768219 35.34961128 C-6.49621089 30.92183138 -6.49732015 26.4944454 -6.48359558 22.0666478 C-6.481898 20.4609266 -6.487037 18.85518135 -6.49953273 17.24950787 C-6.51548716 15.07369159 -6.50699664 12.89931437 -6.49219131 10.72352219 C-6.4937102 9.51297377 -6.49522908 8.30242536 -6.49679399 7.05519366 C-5.87866632 3.25381968 -4.24505304 0 0 0 Z " fill="#FC8F30" transform="translate(74,67)"/>
<path d="M0 0 C0.96256714 0.03758423 0.96256714 0.03758423 1.94458008 0.07592773 C15.32231774 0.58578706 28.69639435 0.99656107 42.08203125 1.21875 C43.13935959 1.23639908 44.19668793 1.25404816 45.28605652 1.27223206 C46.35801773 1.29011276 47.42997894 1.30799347 48.53442383 1.32641602 C66.41367444 1.62555235 84.26935071 1.99943803 102.125 3 C103.27866058 3.06282669 103.27866058 3.06282669 104.45562744 3.12692261 C116.8128773 3.8128773 116.8128773 3.8128773 118 5 C120.08185432 5.13533861 122.16808437 5.20389135 124.25390625 5.24609375 C126.23293945 5.29358765 126.23293945 5.29358765 128.25195312 5.34204102 C128.95586182 5.35743927 129.65977051 5.37283752 130.38500977 5.38870239 C144.9811034 5.71580119 159.46653702 6.56214155 174 8 C174 8.33 174 8.66 174 9 C169.42847075 9.02485982 164.85698153 9.04293526 160.28540039 9.05493164 C158.73265904 9.05993684 157.17992234 9.06674301 155.62719727 9.07543945 C153.38556768 9.08767307 151.14400082 9.09326657 148.90234375 9.09765625 C148.21663803 9.10281754 147.53093231 9.10797882 146.82444763 9.11329651 C142.45407512 9.11379654 138.31545084 8.65049629 134 8 C131.37978411 7.79002591 128.7721103 7.60827784 126.1484375 7.46875 C125.38284515 7.42721802 124.61725281 7.38568604 123.82846069 7.34289551 C111.64598206 6.73157002 99.4426926 6.63642179 87.24804688 6.44775391 C83.99080726 6.39611936 80.73369949 6.33894704 77.4765625 6.28125 C76.48185944 6.26767456 75.48715637 6.25409912 74.46231079 6.2401123 C73.53969452 6.22339478 72.61707825 6.20667725 71.66650391 6.18945312 C70.8591983 6.17692505 70.0518927 6.16439697 69.22012329 6.15148926 C67.02868978 6.00195764 65.11362796 5.57772509 63 5 C50.18262191 3.36605662 37.08300324 3.65982062 24.1875 3.4375 C21.83788424 3.39422571 19.48827476 3.35060885 17.13867188 3.30664062 C11.42584774 3.20047458 5.71296035 3.09854829 0 3 C0 2.01 0 1.02 0 0 Z " fill="#FA9032" transform="translate(250,75)"/>
<path d="M0 0 C1.875 0.5625 1.875 0.5625 4 2 C5.25 5.625 5.25 5.625 6 9 C6.66 9 7.32 9 8 9 C8.78657238 12.14628953 9.04640183 15.02507251 9 18.25 C9 19.4875 9 20.725 9 22 C9.33 22.33 9.66 22.66 10 23 C10.04063832 24.66617115 10.042721 26.33388095 10 28 C10.66 28 11.32 28 12 28 C12.04940499 33.64166991 12.08572193 39.28321413 12.10986328 44.92504883 C12.11992639 46.84466749 12.13357816 48.76427081 12.15087891 50.68383789 C12.17511364 53.44160752 12.18647992 56.19917464 12.1953125 58.95703125 C12.20563507 59.81649857 12.21595764 60.67596588 12.22659302 61.56147766 C12.22674408 62.36208115 12.22689514 63.16268463 12.22705078 63.98754883 C12.231492 64.6914827 12.23593323 65.39541656 12.24050903 66.12068176 C12 68 12 68 10 71 C9.34 71 8.68 71 8 71 C8 71.66 8 72.32 8 73 C7.01 73 6.02 73 5 73 C5 73.66 5 74.32 5 75 C3.68 74.67 2.36 74.34 1 74 C1.78375 73.319375 2.5675 72.63875 3.375 71.9375 C6.62811723 68.72657492 6.62811723 68.72657492 8 62 C3.05 61.67 -1.9 61.34 -7 61 C-7 60.67 -7 60.34 -7 60 C-2.38 60 2.24 60 7 60 C6.62194884 46.92738898 6.21811495 33.85261049 5.1875 20.8125 C5.12965332 19.9364209 5.07180664 19.0603418 5.01220703 18.15771484 C4.56241161 13.00159668 3.44535042 9.1838029 0.83325195 4.69799805 C0 3 0 3 0 0 Z " fill="#F07D0E" transform="translate(318,223)"/>
<path d="M0 0 C58.3293554 -0.66434346 116.61825784 3.17865551 174.81103516 6.8046875 C181.872085 7.23715113 188.93582748 7.62244929 196 8 C196 8.33 196 8.66 196 9 C180.80867621 9.20364435 165.74889057 8.72854901 150.58862305 7.77511597 C132.72916257 6.65865931 114.89177719 5.76239525 97 5.4375 C80.05722236 5.12387144 63.17136985 4.38126415 46.25439453 3.40974426 C37.43155059 2.90445942 28.60580318 2.45735089 19.77987671 2.00973511 C16.35427453 1.83588565 12.92874723 1.66058645 9.5032196 1.48527527 C6.3354962 1.32319362 3.16774889 1.16158273 0 1 C0 0.67 0 0.34 0 0 Z " fill="#FDD3B1" transform="translate(73,64)"/>
<path d="M0 0 C0.33 1.32 0.66 2.64 1 4 C1.66 4 2.32 4 3 4 C3 18.85 3 33.7 3 49 C3.66 49 4.32 49 5 49 C5.33 50.65 5.66 52.3 6 54 C4.046875 52.85546875 4.046875 52.85546875 2 51 C1.390625 48.30078125 1.390625 48.30078125 1.25 45.3125 C1.19328125 44.31863281 1.1365625 43.32476562 1.078125 42.30078125 C1.05234375 41.54152344 1.0265625 40.78226562 1 40 C0.34 40 -0.32 40 -1 40 C-1 71.02 -1 102.04 -1 134 C-1.99 134 -2.98 134 -4 134 C-3.67 133.01 -3.34 132.02 -3 131 C-2.91212517 129.65451769 -2.87800118 128.30508906 -2.87974548 126.95674133 C-2.87837082 126.1364444 -2.87699615 125.31614746 -2.87557983 124.47099304 C-2.87917511 123.57475723 -2.88277039 122.67852142 -2.88647461 121.75512695 C-2.88632858 120.80859253 -2.88618256 119.86205811 -2.8860321 118.88684082 C-2.88672953 115.75396443 -2.89451401 112.62114727 -2.90234375 109.48828125 C-2.90420853 107.3178053 -2.90563215 105.14732894 -2.90663147 102.97685242 C-2.91045189 97.26072022 -2.92027816 91.54461338 -2.93133545 85.82849121 C-2.94155976 79.99699242 -2.94613128 74.16548954 -2.95117188 68.33398438 C-2.96190082 56.88931177 -2.97897158 45.44465799 -3 34 C-7.29 33.67 -11.58 33.34 -16 33 C-16 32.67 -16 32.34 -16 32 C-9.565 31.505 -9.565 31.505 -3 31 C-2.67 21.1 -2.34 11.2 -2 1 C-1.34 0.67 -0.68 0.34 0 0 Z " fill="#DD6F10" transform="translate(307,241)"/>
<path d="M0 0 C10.36672641 -0.17753653 20.66656304 0.37911246 31.01171875 0.953125 C32.88190997 1.05463702 34.75211397 1.15591402 36.62232971 1.25697327 C41.61387005 1.52770507 46.60515666 1.80286532 51.59638977 2.07919693 C54.69087477 2.25018648 57.78542707 2.41990188 60.88000488 2.58920288 C96.93036754 4.56234815 132.96929972 6.69596002 169 9 C169 9.33 169 9.66 169 10 C164.4467813 10.02489563 159.89360307 10.04295187 155.34033203 10.05493164 C153.79442656 10.05993092 152.24852575 10.06673253 150.70263672 10.07543945 C148.46841272 10.08769956 146.23425174 10.09327249 144 10.09765625 C143.31945557 10.10281754 142.63891113 10.10797882 141.93774414 10.11329651 C137.87792216 10.11376106 133.98976621 9.78617001 129.98043823 9.23704529 C126.74391848 8.84965539 123.51060426 8.79508679 120.25390625 8.71875 C118.82617114 8.68101751 117.39843678 8.6432563 115.97070312 8.60546875 C113.74978581 8.55152335 111.52883744 8.49921995 109.30786133 8.44775391 C107.14392103 8.39623714 104.980188 8.33899001 102.81640625 8.28125 C100.88970093 8.23581055 100.88970093 8.23581055 98.92407227 8.18945312 C96 8 96 8 95 7 C92.85087458 6.79153138 90.6951864 6.65060737 88.5390625 6.53515625 C87.85808502 6.49764755 87.17710754 6.46013885 86.47549438 6.42149353 C84.19222005 6.29719666 81.90863858 6.17989923 79.625 6.0625 C78.02179362 5.97621333 76.41860377 5.88961898 74.81542969 5.80273438 C65.7462263 5.31774132 56.67515767 4.8898328 47.6015625 4.49609375 C46.6539505 4.45436539 45.7063385 4.41263702 44.73001099 4.36964417 C40.11147786 4.16639674 35.49287352 3.96945952 30.87353516 3.78540039 C20.48744422 3.34926536 10.29270947 2.4853227 0 1 C0 0.67 0 0.34 0 0 Z " fill="#FEDBBF" transform="translate(272,73)"/>
<path d="M0 0 C0.33 0 0.66 0 1 0 C1 8.91 1 17.82 1 27 C4.96 26.67 8.92 26.34 13 26 C13 20.39 13 14.78 13 9 C13.33 9 13.66 9 14 9 C14.0990914 13.05664947 14.17157106 17.1128277 14.21972656 21.17041016 C14.23980642 22.5497668 14.26707666 23.92903869 14.30175781 25.30810547 C14.35042817 27.29356979 14.37086418 29.27966254 14.390625 31.265625 C14.41157227 32.45961914 14.43251953 33.65361328 14.45410156 34.88378906 C13.9118833 38.60468904 12.95471759 39.75386746 10 42 C7.21857957 42.50755847 4.8542771 42.19028514 2 42 C-0.66762858 37.40120201 -1.36817926 34.10369846 -1.328125 28.80859375 C-1.32625183 28.14086441 -1.32437866 27.47313507 -1.32244873 26.78517151 C-1.31576523 25.38252723 -1.301925 23.9799004 -1.28125 22.57739258 C-1.25003781 20.44008883 -1.24026548 18.30352505 -1.234375 16.16601562 C-1.15889567 4.89627615 -1.15889567 4.89627615 0 0 Z " fill="#7C3909" transform="translate(232,255)"/>
<path d="M0 0 C5.72509454 -0.02500545 11.45015622 -0.04300228 17.17529297 -0.05493164 C19.11670486 -0.05991292 21.0581131 -0.06670036 22.99951172 -0.07543945 C57.12955706 -0.22505543 57.12955706 -0.22505543 66 5 C69.13149423 8.13149423 70.87540601 10.72858478 71.12304783 15.24322796 C71.12212604 16.12538384 71.12120424 17.00753973 71.12025452 17.91642761 C71.12231651 19.43716133 71.12231651 19.43716133 71.12442017 20.98861694 C71.11902725 22.65557114 71.11902725 22.65557114 71.11352539 24.35620117 C71.11367142 25.52706772 71.11381744 26.69793427 71.1139679 27.90428162 C71.11339025 31.11476276 71.10837198 34.32520043 71.10139394 37.5356729 C71.09514631 40.89091157 71.09455548 44.24615107 71.09336853 47.60139465 C71.09025938 53.95492753 71.08205158 60.30844322 71.07201904 66.66196853 C71.06084501 73.89527173 71.0553442 81.12857575 71.05032361 88.36188543 C71.03986864 103.24126653 71.02227722 118.12063155 71 133 C70.67 133 70.34 133 70 133 C69.67 93.07 69.34 53.14 69 12 C68.01 11.67 67.02 11.34 66 11 C65.505 8.525 65.505 8.525 65 6 C56.74131077 4.45330536 48.62154112 3.57108245 40.234375 3.1484375 C39.07496399 3.08467926 37.91555298 3.02092102 36.7210083 2.95523071 C33.06431146 2.7555652 29.40720413 2.5651225 25.75 2.375 C23.25126894 2.2401962 20.75257057 2.10478512 18.25390625 1.96875 C12.16963064 1.6388188 6.08499183 1.31643188 0 1 C0 0.67 0 0.34 0 0 Z " fill="#F9BE89" transform="translate(424,83)"/>
<path d="M0 0 C-4.32855268 3.16754932 -8.44317684 3.65605453 -13.64453125 4.0546875 C-14.94521294 4.16911697 -14.94521294 4.16911697 -16.27217102 4.28585815 C-19.18047939 4.53737252 -22.08997798 4.76921424 -25 5 C-27.1086026 5.17561034 -29.21716282 5.35173024 -31.32568359 5.52832031 C-36.9552319 5.99340433 -42.58650716 6.43195842 -48.21899414 6.85986328 C-51.69404532 7.12550033 -55.1682734 7.40057428 -58.64257812 7.67578125 C-70.78713259 8.61473808 -82.81827461 9.28743038 -95 9 C-90.15114271 6.27084636 -85.07559952 6.0162229 -79.625 5.375 C-77.97576538 5.17716919 -77.97576538 5.17716919 -76.29321289 4.9753418 C-65.50896573 3.77966844 -54.8340213 3.70951482 -44 4 C-44 3.01 -44 2.02 -44 1 C-42.45675049 1.01571045 -42.45675049 1.01571045 -40.88232422 1.03173828 C-37.04691072 1.06807599 -33.2115123 1.09095038 -29.37597656 1.10986328 C-27.71937497 1.11988957 -26.06279093 1.13351406 -24.40625 1.15087891 C-22.01818495 1.17527621 -19.63035492 1.18651694 -17.2421875 1.1953125 C-16.50757294 1.20563507 -15.77295837 1.21595764 -15.01608276 1.22659302 C-9.81403956 1.2277152 -4.76730389 -1.5891013 0 0 Z " fill="#F68826" transform="translate(491,455)"/>
<path d="M0 0 C0.91007812 0.00902344 1.82015625 0.01804688 2.7578125 0.02734375 C3.45648438 0.03894531 4.15515625 0.05054688 4.875 0.0625 C5.535 2.7025 6.195 5.3425 6.875 8.0625 C8.525 8.0625 10.175 8.0625 11.875 8.0625 C11.875 7.4025 11.875 6.7425 11.875 6.0625 C12.535 6.0625 13.195 6.0625 13.875 6.0625 C14.205 4.4125 14.535 2.7625 14.875 1.0625 C15.625 2.6875 15.625 2.6875 15.875 5.0625 C14.11607963 8.09512133 12.35309712 10.58440288 9.875 13.0625 C9.16789322 14.71241582 8.49556011 16.37812256 7.875 18.0625 C6.555 17.7325 5.235 17.4025 3.875 17.0625 C3.875 11.7825 3.875 6.5025 3.875 1.0625 C1.565 1.3925 -0.745 1.7225 -3.125 2.0625 C-3.15005615 2.80298584 -3.1751123 3.54347168 -3.20092773 4.30639648 C-3.3179172 7.70439649 -3.44017147 11.10218817 -3.5625 14.5 C-3.60181641 15.66466797 -3.64113281 16.82933594 -3.68164062 18.02929688 C-4.04001293 27.81561757 -4.04001293 27.81561757 -4.625 32.46875 C-5.42895929 38.98975315 -5.49023702 45.56358062 -5.6875 52.125 C-5.73079628 53.48113016 -5.77441366 54.83725011 -5.81835938 56.19335938 C-5.9237211 59.48298671 -6.02584952 62.77268059 -6.125 66.0625 C-2.825 66.0625 0.475 66.0625 3.875 66.0625 C3.875 66.3925 3.875 66.7225 3.875 67.0625 C0.245 67.0625 -3.385 67.0625 -7.125 67.0625 C-7.125 45.2825 -7.125 23.5025 -7.125 1.0625 C-4.60024538 -0.19987731 -2.81299534 -0.03606404 0 0 Z " fill="#632906" transform="translate(260.125,205.9375)"/>
<path d="M0 0 C0.33 0 0.66 0 1 0 C1.33 11.55 1.66 23.1 2 35 C6.29 35.33 10.58 35.66 15 36 C14.67 36.66 14.34 37.32 14 38 C14.66 38.33 15.32 38.66 16 39 C15.33332088 43.65680344 14.84516563 47.06586956 11.625 50.625 C9 52 9 52 6.6875 51.75 C6.130625 51.5025 5.57375 51.255 5 51 C5 50.34 5 49.68 5 49 C4.34 49 3.68 49 3 49 C2.67 47.35 2.34 45.7 2 44 C1.34 44 0.68 44 0 44 C0 29.48 0 14.96 0 0 Z " fill="#813507" transform="translate(310,246)"/>
<path d="M0 0 C1.890625 0.2890625 1.890625 0.2890625 4 1 C7.1888545 7.14993369 8.01332873 13.13911372 7 20 C5.38908208 24.75251646 3.44855458 29.21791817 0.26953125 33.12890625 C-0.35888672 34.05509766 -0.35888672 34.05509766 -1 35 C-0.67 35.99 -0.34 36.98 0 38 C1.65 38.33 3.3 38.66 5 39 C5 39.33 5 39.66 5 40 C2.36 40 -0.28 40 -3 40 C-3.06058594 40.62648437 -3.12117188 41.25296875 -3.18359375 41.8984375 C-3.26738281 42.71570313 -3.35117187 43.53296875 -3.4375 44.375 C-3.51871094 45.18710938 -3.59992188 45.99921875 -3.68359375 46.8359375 C-4 49 -4 49 -5 51 C-8.17119503 49.90648447 -9.00783543 48.9873012 -10.8125 46.0625 C-12 43 -12 43 -11 40 C-12.32 39.34 -13.64 38.68 -15 38 C-14.36191406 37.81824219 -13.72382813 37.63648438 -13.06640625 37.44921875 C-12.24011719 37.19785156 -11.41382813 36.94648438 -10.5625 36.6875 C-9.73878906 36.44386719 -8.91507812 36.20023438 -8.06640625 35.94921875 C-7.38449219 35.63597656 -6.70257813 35.32273438 -6 35 C-5.67 34.01 -5.34 33.02 -5 32 C-4.05125 31.236875 -3.1025 30.47375 -2.125 29.6875 C1.0445123 27.11227126 2.65880754 24.9490667 4 21 C4.56173066 14.71693855 4.90984575 6.97935936 1.4375 1.5625 C0.963125 1.046875 0.48875 0.53125 0 0 Z " fill="#EA770E" transform="translate(294,165)"/>
<path d="M0 0 C0.99 0 1.98 0 3 0 C3 0.66 3 1.32 3 2 C3.5775 2.0825 4.155 2.165 4.75 2.25 C7.6159304 3.20531013 8.9990764 4.78469173 11 7 C10.67 7.66 10.34 8.32 10 9 C9.01 8.67 8.02 8.34 7 8 C4.93184123 15.97718384 4.3637019 22.81850951 6 31 C5.01 31 4.02 31 3 31 C3 23.74 3 16.48 3 9 C2.34 9 1.68 9 1 9 C1 27.48 1 45.96 1 65 C0.67 65 0.34 65 0 65 C-0.02505615 64.05680908 -0.0501123 63.11361816 -0.07592773 62.1418457 C-0.17129809 58.62871337 -0.27051725 55.11573292 -0.37231445 51.6027832 C-0.41551548 50.08492245 -0.45720048 48.56701774 -0.49731445 47.04907227 C-0.55537812 44.86200741 -0.61896656 42.67516082 -0.68359375 40.48828125 C-0.72025146 39.17384033 -0.75690918 37.85939941 -0.79467773 36.50512695 C-0.9683125 33.54094812 -1.38384097 30.89104271 -2 28 C-2.20641068 24.91806302 -2.18508352 21.83826451 -2.1875 18.75 C-2.19974609 17.94175781 -2.21199219 17.13351563 -2.22460938 16.30078125 C-2.23823225 10.62458268 -1.45318374 5.48340155 0 0 Z " fill="#4D1E02" transform="translate(302,207)"/>
<path d="M0 0 C0.33 0 0.66 0 1 0 C1 13.86 1 27.72 1 42 C0.01 41.01 -0.98 40.02 -2 39 C-2.99 40.98 -3.98 42.96 -5 45 C-5.66 44.67 -6.32 44.34 -7 44 C-6.505 43.505 -6.505 43.505 -6 43 C-5.79422112 40.82843652 -5.65173458 38.65083035 -5.53515625 36.47265625 C-5.45649436 35.10871737 -5.37771427 33.7447853 -5.29882812 32.38085938 C-5.18027108 30.23539065 -5.06394591 28.0898337 -4.95043945 25.9440918 C-3.75826481 3.75826481 -3.75826481 3.75826481 0 0 Z " fill="#D96C08" transform="translate(251,250)"/>
<path d="M0 0 C1.19238281 0.00322266 2.38476562 0.00644531 3.61328125 0.00976562 C5.44439453 0.02233398 5.44439453 0.02233398 7.3125 0.03515625 C9.19001953 0.04192383 9.19001953 0.04192383 11.10546875 0.04882812 C14.17452941 0.0605421 17.24348907 0.07694552 20.3125 0.09765625 C20.3125 0.42765625 20.3125 0.75765625 20.3125 1.09765625 C19.34134247 1.15807602 18.37018494 1.21849579 17.36959839 1.28074646 C8.16160938 1.8536981 -1.04633716 2.4273281 -10.25424385 3.00160122 C-14.98669521 3.29673055 -19.71916058 3.59163114 -24.45166016 3.88598633 C-29.02936105 4.17072207 -33.60702228 4.45608824 -38.18465805 4.74186897 C-39.92029329 4.85011742 -41.65594208 4.95814887 -43.39160538 5.06594658 C-52.55724109 5.63534847 -61.71929858 6.22519853 -70.8770752 6.91125488 C-74.28629935 7.1373716 -77.64645219 7.19811234 -81.0625 7.16015625 C-82.14273438 7.15113281 -83.22296875 7.14210938 -84.3359375 7.1328125 C-85.11195313 7.12121094 -85.88796875 7.10960937 -86.6875 7.09765625 C-86.6875 6.76765625 -86.6875 6.43765625 -86.6875 6.09765625 C-85.56730469 5.96488281 -84.44710937 5.83210938 -83.29296875 5.6953125 C-81.82029271 5.51709056 -80.34763753 5.33869614 -78.875 5.16015625 C-78.13701172 5.07314453 -77.39902344 4.98613281 -76.63867188 4.89648438 C-73.52016879 4.51549079 -70.67641878 4.09396251 -67.6875 3.09765625 C-65.16131971 2.87930693 -62.65637769 2.71751057 -60.125 2.59765625 C-58.92943481 2.53674805 -58.92943481 2.53674805 -57.7097168 2.47460938 C-51.85775307 2.19642845 -46.00449461 2.01055052 -40.1484375 1.84765625 C-39.02421135 1.81617493 -39.02421135 1.81617493 -37.87727356 1.78405762 C-34.09141576 1.67927974 -30.30551767 1.5805425 -26.51928711 1.49023438 C-25.09228359 1.45318542 -23.66528157 1.41607841 -22.23828125 1.37890625 C-20.97669189 1.34861328 -19.71510254 1.31832031 -18.4152832 1.28710938 C-15.76355422 1.1523434 -13.25325921 0.93848967 -10.63354492 0.58618164 C-7.03426598 0.14058632 -3.62199783 -0.01741345 0 0 Z " fill="#F7B378" transform="translate(278.6875,467.90234375)"/>
<path d="M0 0 C0.33 0 0.66 0 1 0 C1 8.58 1 17.16 1 26 C0.67 26 0.34 26 0 26 C0.02320313 27.20398438 0.04640625 28.40796875 0.0703125 29.6484375 C0.08906863 31.22395215 0.10726899 32.79947348 0.125 34.375 C0.15013672 35.56609375 0.15013672 35.56609375 0.17578125 36.78125 C0.19335473 38.85492015 0.10335168 40.92883241 0 43 C-0.66 43.66 -1.32 44.32 -2 45 C-5.30573322 54.29062278 -4.65110581 65.25649158 -5 75 C-5.33 75 -5.66 75 -6 75 C-6.26535288 38.80586757 -6.26535288 38.80586757 -3.9921875 31.96875 C-1.97950141 25.30458367 -2.56038586 17.9714252 -2.43359375 11.07617188 C-2.40394531 9.94115234 -2.37429687 8.80613281 -2.34375 7.63671875 C-2.32505859 6.60248779 -2.30636719 5.56825684 -2.28710938 4.50268555 C-2 2 -2 2 0 0 Z " fill="#B95C0C" transform="translate(252,207)"/>
<path d="M0 0 C0.66 0 1.32 0 2 0 C1.71342606 1.54262145 1.42046123 3.08405606 1.125 4.625 C0.96257812 5.48351562 0.80015625 6.34203125 0.6328125 7.2265625 C0 10 0 10 -0.96875 12.74609375 C-5.20435355 26.11070645 -5.29581619 40.66223722 -5.3125 54.5625 C-5.31590393 55.24416229 -5.31930786 55.92582458 -5.32281494 56.62814331 C-5.50536927 65.56081275 -5.50536927 65.56081275 -3 74 C-1.72125 74.020625 -0.4425 74.04125 0.875 74.0625 C1.59429687 74.07410156 2.31359375 74.08570313 3.0546875 74.09765625 C5.08185404 74.12649242 5.08185404 74.12649242 7 73 C6.67 74.32 6.34 75.64 6 77 C-2.8404908 76.96625767 -2.8404908 76.96625767 -6.625 73.8125 C-8.3141707 70.51280419 -8.15451165 67.35251725 -8.1171875 63.69921875 C-8.10478027 62.45229248 -8.09237305 61.20536621 -8.07958984 59.9206543 C-7.92584795 52.34721558 -7.64419343 44.78020605 -7.35546875 37.2109375 C-7.08445783 29.73103608 -7.00199402 22.3053614 -7.21435547 14.82202148 C-7 12 -7 12 -4.625 9.0625 C-3.75875 8.381875 -2.8925 7.70125 -2 7 C-1.01495084 4.67350199 -0.53590864 2.48466731 0 0 Z " fill="#D16A16" transform="translate(237,222)"/>
<path d="M0 0 C0.33 0 0.66 0 1 0 C1.04632562 10.36160258 1.08187038 20.72318055 1.10362434 31.08486557 C1.11406476 35.89613247 1.12822872 40.70732855 1.15087891 45.51855469 C1.17259801 50.16102037 1.18456668 54.80341791 1.18975449 59.44593048 C1.19345191 61.21776655 1.20067198 62.98959886 1.21146011 64.76140594 C1.22596264 67.24173566 1.22797846 69.72178319 1.22705078 72.20214844 C1.23783661 73.30266541 1.23783661 73.30266541 1.24884033 74.42541504 C1.23388996 78.11569151 1.04310385 80.86504394 -1 84 C-2.17227325 80.48318024 -2.14762245 77.31324317 -2.14526367 73.65454102 C-2.14862228 72.90950317 -2.1519809 72.16446533 -2.15544128 71.39685059 C-2.16494489 68.93251888 -2.16689404 66.46825515 -2.16796875 64.00390625 C-2.17118154 62.29141715 -2.17454563 60.57892833 -2.17805481 58.86643982 C-2.18404445 55.2761064 -2.18589486 51.68579705 -2.18530273 48.09545898 C-2.18520108 43.49415874 -2.19885789 38.89301268 -2.21607494 34.291749 C-2.22719098 30.75472809 -2.22922207 27.21774452 -2.22869301 23.68070793 C-2.22987354 21.98423671 -2.23429945 20.28776454 -2.24202538 18.5913105 C-2.25181809 16.21904811 -2.24895024 13.84712126 -2.24291992 11.47485352 C-2.24853943 10.77394089 -2.25415894 10.07302826 -2.25994873 9.35087585 C-2.23654898 5.73000968 -1.97952278 3.08103315 0 0 Z " fill="#370F00" transform="translate(275,294)"/>
<path d="M0 0 C9.07500776 -0.17077308 18.09935694 0.28958296 27.15576172 0.79956055 C29.65434649 0.93913939 32.15328697 1.07034779 34.65234375 1.20117188 C36.23961104 1.28856061 37.82685181 1.37643288 39.4140625 1.46484375 C40.16184967 1.50343002 40.90963684 1.5420163 41.68008423 1.58177185 C46.88539929 1.88539929 46.88539929 1.88539929 48 3 C50.08185432 3.13533861 52.16808437 3.20389135 54.25390625 3.24609375 C56.23293945 3.29358765 56.23293945 3.29358765 58.25195312 3.34204102 C59.30781616 3.3651384 59.30781616 3.3651384 60.38500977 3.38870239 C74.9811034 3.71580119 89.46653702 4.56214155 104 6 C104 6.33 104 6.66 104 7 C99.42847075 7.02485982 94.85698153 7.04293526 90.28540039 7.05493164 C88.73265904 7.05993684 87.17992234 7.06674301 85.62719727 7.07543945 C83.38556768 7.08767307 81.14400082 7.09326657 78.90234375 7.09765625 C78.21663803 7.10281754 77.53093231 7.10797882 76.82444763 7.11329651 C72.45096194 7.1137969 68.320192 6.63444792 64 6 C60.54777602 5.71254535 57.09109118 5.51605291 53.6328125 5.31640625 C51.59113974 5.19215743 49.54947327 5.06780504 47.5078125 4.94335938 C44.33147941 4.75306203 41.15506925 4.56426617 37.97851562 4.37768555 C25.25891831 3.62601867 12.63288812 2.68359718 0 1 C0 0.67 0 0.34 0 0 Z " fill="#FAA761" transform="translate(320,77)"/>
<path d="M0 0 C11.87493957 -0.12109048 23.68081433 0.1469277 35.53833008 0.79956055 C38.11962637 0.94062181 40.7013248 1.07124322 43.28320312 1.20117188 C44.92971983 1.28845472 46.57620571 1.37632156 48.22265625 1.46484375 C49.37701927 1.52272316 49.37701927 1.52272316 50.55470276 1.58177185 C55.88496679 1.88496679 55.88496679 1.88496679 57 3 C59.69235776 3.23678716 62.36498156 3.42198025 65.0625 3.5625 C66.20041992 3.62727539 66.20041992 3.62727539 67.36132812 3.69335938 C69.24065438 3.79973633 71.12030244 3.90039934 73 4 C73 4.33 73 4.66 73 5 C72.44014404 5.02505615 71.88028809 5.0501123 71.3034668 5.07592773 C68.76458695 5.19203745 66.22606447 5.3146958 63.6875 5.4375 C62.36588867 5.49647461 62.36588867 5.49647461 61.01757812 5.55664062 C59.74624023 5.61948242 59.74624023 5.61948242 58.44921875 5.68359375 C57.66893311 5.72025146 56.88864746 5.75690918 56.0847168 5.79467773 C53.80670899 5.94125263 53.80670899 5.94125263 51 7 C50.505 6.01 50.505 6.01 50 5 C48.86046875 5.03480469 47.7209375 5.06960937 46.546875 5.10546875 C35.1358312 5.34055964 24.41593502 4.22891327 13.17773438 2.34179688 C8.80897438 1.65611705 4.41031096 1.29334637 0 1 C0 0.67 0 0.34 0 0 Z " fill="#FB953B" transform="translate(94,66)"/>
<path d="M0 0 C6.0546875 -0.1953125 6.0546875 -0.1953125 8 0 C8.66 0.66 9.32 1.32 10 2 C7.03 1.67 4.06 1.34 1 1 C1 33.34 1 65.68 1 99 C1.66 99 2.32 99 3 99 C3 100.32 3 101.64 3 103 C3.74765625 103.06058594 4.4953125 103.12117188 5.265625 103.18359375 C6.74289062 103.30927734 6.74289062 103.30927734 8.25 103.4375 C9.71179688 103.55931641 9.71179688 103.55931641 11.203125 103.68359375 C13.56461753 103.95074584 15.71901065 104.35371968 18 105 C13.82164842 107.08917579 8.47055502 106.37546086 4.0625 105.25 C1.56460746 103.73612574 1.08422905 102.67863632 0 100 C-0.24609566 97.94607162 -0.24609566 97.94607162 -0.24050903 95.72259521 C-0.24325836 94.87568115 -0.24600769 94.02876709 -0.24884033 93.15618896 C-0.24164978 92.23549622 -0.23445923 91.31480347 -0.22705078 90.36621094 C-0.22734283 89.39026978 -0.22763489 88.41432861 -0.22793579 87.40881348 C-0.22654277 84.18391012 -0.2109827 80.95923798 -0.1953125 77.734375 C-0.19158228 75.4980685 -0.18873535 73.26176037 -0.18673706 71.02545166 C-0.17910137 65.13996874 -0.15945333 59.25458454 -0.1373291 53.36914062 C-0.11686936 47.36329484 -0.10773506 41.35743309 -0.09765625 35.3515625 C-0.07620746 23.56766496 -0.0420722 11.78384069 0 0 Z " fill="#1D0100" transform="translate(254,276)"/>
<path d="M0 0 C0 33.33 0 66.66 0 101 C-0.66 101 -1.32 101 -2 101 C-2.66 102.32 -3.32 103.64 -4 105 C-4.66 105 -5.32 105 -6 105 C-5.67 104.01 -5.34 103.02 -5 102 C-4.34 102 -3.68 102 -3 102 C-2.21578972 99.21623729 -1.86797593 96.72534488 -1.84178162 93.83648682 C-1.8319928 93.01481522 -1.82220398 92.19314362 -1.81211853 91.34657288 C-1.80636307 90.45393234 -1.8006076 89.56129181 -1.79467773 88.64160156 C-1.78477814 87.69492111 -1.77487854 86.74824066 -1.76467896 85.77287292 C-1.73310546 82.64548234 -1.70832286 79.51807657 -1.68359375 76.390625 C-1.66302065 74.22157396 -1.64202408 72.05252689 -1.62062073 69.88348389 C-1.5654369 64.17563092 -1.51601131 58.46774199 -1.46777344 52.75982666 C-1.41753152 46.93490398 -1.36185949 41.1100335 -1.30664062 35.28515625 C-1.19910415 23.85681543 -1.09764912 12.42842928 -1 1 C-5.455 1.495 -5.455 1.495 -10 2 C-7 0 -7 0 0 0 Z " fill="#2E0600" transform="translate(303,276)"/>
<path d="M0 0 C1.16337891 0.01289062 2.32675781 0.02578125 3.52539062 0.0390625 C4.74033203 0.07257813 5.95527344 0.10609375 7.20703125 0.140625 C8.43357422 0.15867187 9.66011719 0.17671875 10.92382812 0.1953125 C13.95650884 0.24251376 16.98763212 0.30834823 20.01953125 0.390625 C20.01953125 0.720625 20.01953125 1.050625 20.01953125 1.390625 C19.40956299 1.41568115 18.79959473 1.4407373 18.17114258 1.46655273 C15.39125227 1.5830308 12.61165785 1.70552132 9.83203125 1.828125 C8.87232422 1.86744141 7.91261719 1.90675781 6.92382812 1.94726562 C5.99248047 1.98916016 5.06113281 2.03105469 4.1015625 2.07421875 C2.82116089 2.12920532 2.82116089 2.12920532 1.51489258 2.18530273 C-1.04501469 2.39593594 -3.47380118 2.83904036 -5.98046875 3.390625 C-7.19172307 7.02438796 -7.15661268 10.38160513 -7.18579102 14.16674805 C-7.19569061 14.95722534 -7.20559021 15.74770264 -7.21578979 16.56213379 C-7.24738268 19.17550662 -7.27215349 21.78889763 -7.296875 24.40234375 C-7.31744644 26.21410088 -7.33844296 28.02585323 -7.35984802 29.83760071 C-7.4150491 34.60674164 -7.46446706 39.37592574 -7.51269531 44.1451416 C-7.56292465 49.01151371 -7.61860324 53.8778231 -7.67382812 58.74414062 C-7.78138569 68.29291518 -7.88283603 77.84174418 -7.98046875 87.390625 C-8.31046875 87.390625 -8.64046875 87.390625 -8.98046875 87.390625 C-9.04995133 76.6378935 -9.1032712 65.88521534 -9.13590527 55.13230515 C-9.15156727 50.13939235 -9.17281538 45.14663305 -9.20678711 40.15380859 C-9.23936138 35.33627054 -9.25731774 30.51888021 -9.26510048 25.70124054 C-9.27064746 23.86240564 -9.28147925 22.02357891 -9.29765892 20.18480682 C-9.31940759 17.61098195 -9.32243676 15.03776903 -9.32104492 12.46386719 C-9.33183075 11.70213699 -9.34261658 10.9404068 -9.35372925 10.15559387 C-9.33508608 6.97362138 -9.16746984 4.73341527 -7.62963867 1.91442871 C-5.16944461 -0.3587469 -3.29653615 -0.06432266 0 0 Z " fill="#FB9D48" transform="translate(75.98046875,64.609375)"/>
<path d="M0 0 C1.18851563 0.00902344 2.37703125 0.01804687 3.6015625 0.02734375 C4.51679688 0.03894531 5.43203125 0.05054688 6.375 0.0625 C-4.40583417 7.24972278 -24.21769148 4.28976864 -36.625 4.1875 C-38.76822495 4.17744248 -40.91145451 4.16832157 -43.0546875 4.16015625 C-48.24490792 4.13838003 -53.4349014 4.10400546 -58.625 4.0625 C-56.15618175 1.59368175 -55.42382496 1.8011359 -52.0234375 1.75952148 C-51.06904785 1.74287949 -50.1146582 1.72623749 -49.13134766 1.70909119 C-48.09800293 1.70067703 -47.0646582 1.69226288 -46 1.68359375 C-44.41324463 1.65810204 -44.41324463 1.65810204 -42.79443359 1.63209534 C-39.40468353 1.57882578 -36.01494633 1.53860932 -32.625 1.5 C-29.23511717 1.45611569 -25.84533102 1.40943145 -22.45556641 1.35719299 C-20.34333516 1.32516969 -18.23101855 1.29830046 -16.11865234 1.27696228 C-15.1642627 1.26347244 -14.20987305 1.2499826 -13.2265625 1.23608398 C-11.96320068 1.22181618 -11.96320068 1.22181618 -10.67431641 1.20726013 C-6.97059744 0.94563589 -3.95304323 -0.03875533 0 0 Z " fill="#F99235" transform="translate(204.625,470.9375)"/>
<path d="M0 0 C0.99 0 1.98 0 3 0 C4.22512902 3.80247765 4.13364718 7.57326463 4.11352539 11.52246094 C4.11367142 12.27406998 4.11381744 13.02567902 4.1139679 13.80006409 C4.11327262 16.27819734 4.10549826 18.75625492 4.09765625 21.234375 C4.0957907 22.95501667 4.09436744 24.67565888 4.09336853 26.39630127 C4.08955413 30.92052685 4.07973302 35.44472023 4.06866455 39.96893311 C4.05842729 44.58735722 4.05386595 49.20578655 4.04882812 53.82421875 C4.0381098 62.88282663 4.02104629 71.94141064 4 81 C3.01 81.495 3.01 81.495 2 82 C1.31656661 79.3422035 0.91912757 77.40225309 1.46456909 74.68927002 C2.04412136 71.77839483 2.12705709 69.1261946 2.12939453 66.15917969 C2.13254669 65.0073822 2.13569885 63.85558472 2.13894653 62.66888428 C2.1369223 61.43237122 2.13489807 60.19585815 2.1328125 58.921875 C2.13376923 57.64072815 2.13472595 56.3595813 2.13571167 55.03961182 C2.13718337 52.32961824 2.13505248 49.61965769 2.13037109 46.90966797 C2.12469699 43.45910357 2.12794139 40.00861736 2.13394356 36.55805588 C2.13845819 33.24182292 2.1352816 29.92561017 2.1328125 26.609375 C2.13483673 25.38095886 2.13686096 24.15254272 2.13894653 22.88690186 C2.12171453 16.52141207 2.04483405 10.28885865 1 4 C0.34 3.67 -0.32 3.34 -1 3 C-0.67 2.01 -0.34 1.02 0 0 Z " fill="#F87C11" transform="translate(248,288)"/>
<path d="M0 0 C0 0.99 0 1.98 0 3 C-1.98 3.66 -3.96 4.32 -6 5 C-5.01 5.66 -4.02 6.32 -3 7 C-3.99 7.495 -3.99 7.495 -5 8 C-3.79157144 12.43090471 -2.48331435 14.98112756 1 18 C1.66 14.37 2.32 10.74 3 7 C5.64 7 8.28 7 11 7 C11 7.33 11 7.66 11 8 C8.69 8 6.38 8 4 8 C4.04125 9.19625 4.0825 10.3925 4.125 11.625 C4.13851708 15.42329953 3.42009753 18.44975618 2 22 C0.203125 21.83984375 0.203125 21.83984375 -2 21 C-3.703125 18.56640625 -3.703125 18.56640625 -5.25 15.5625 C-5.77078125 14.57378906 -6.2915625 13.58507812 -6.828125 12.56640625 C-8 10 -8 10 -8 8 C-10.47266765 8.34444881 -10.47266765 8.34444881 -13 9 C-13.33 9.66 -13.66 10.32 -14 11 C-14 8.03 -14 5.06 -14 2 C-13.15695312 1.93941406 -12.31390625 1.87882813 -11.4453125 1.81640625 C-10.34960938 1.73261719 -9.25390625 1.64882812 -8.125 1.5625 C-7.03445313 1.48128906 -5.94390625 1.40007812 -4.8203125 1.31640625 C-2.05271029 1.16998297 -2.05271029 1.16998297 0 0 Z " fill="#BA6012" transform="translate(288,198)"/>
<path d="M0 0 C19.47 0 38.94 0 59 0 C59 0.33 59 0.66 59 1 C44.65473343 2.01850268 30.31379895 2.3108968 15.9375 2.5625 C13.606114 2.60580899 11.27473371 2.64942665 8.94335938 2.69335938 C3.29563372 2.79912529 -2.35215007 2.90110477 -8 3 C-8 2.67 -8 2.34 -8 2 C-5.36 2 -2.72 2 0 2 C0 1.34 0 0.68 0 0 Z " fill="#F8A65B" transform="translate(128,475)"/>
<path d="M0 0 C0.33 0 0.66 0 1 0 C1.13277344 0.77085937 1.26554687 1.54171875 1.40234375 2.3359375 C1.57894531 3.33882812 1.75554687 4.34171875 1.9375 5.375 C2.11152344 6.37273437 2.28554688 7.37046875 2.46484375 8.3984375 C2.87712062 10.96909656 2.87712062 10.96909656 4 13 C4.09881797 15.6028281 4.13984733 18.17829314 4.1328125 20.78125 C4.13424759 21.9351825 4.13424759 21.9351825 4.13571167 23.11242676 C4.13639254 24.73982831 4.13454473 26.36723257 4.13037109 27.99462891 C4.1250215 30.48997073 4.13031919 32.98513255 4.13671875 35.48046875 C4.13605795 37.05989623 4.13477675 38.6393236 4.1328125 40.21875 C4.13483673 40.9677356 4.13686096 41.71672119 4.13894653 42.48840332 C4.11496122 47.77007757 4.11496122 47.77007757 3 50 C-1.95 49.67 -6.9 49.34 -12 49 C-12 48.67 -12 48.34 -12 48 C-7.38 48 -2.76 48 2 48 C1.43139977 31.99450852 0.80577077 15.99540698 0 0 Z " fill="#B86015" transform="translate(323,235)"/>
<path d="M0 0 C12.19838171 -0.19862094 24.12995009 -0.30218176 36.21875 1.48828125 C42.78264833 2.37657741 49.38825798 2.66589601 56 3 C56 3.33 56 3.66 56 4 C43.65684962 4.10748992 31.33477065 4.07129963 19 3.5625 C18.01708984 3.52326416 17.03417969 3.48402832 16.02148438 3.44360352 C10.63120443 3.20167245 5.34365455 2.74987605 0 2 C0 1.34 0 0.68 0 0 Z " fill="#FCB172" transform="translate(248,73)"/>
<path d="M0 0 C2.64 0 5.28 0 8 0 C8 0.66 8 1.32 8 2 C8.99 2 9.98 2 11 2 C11.25 5.3125 11.25 5.3125 11 9 C9.25 11 9.25 11 7 12 C4.75 11.6875 4.75 11.6875 3 11 C3 10.34 3 9.68 3 9 C2.34 9 1.68 9 1 9 C-1.125 2.25 -1.125 2.25 0 0 Z " fill="#280F04" transform="translate(312,286)"/>
<path d="M0 0 C0.33 1.32 0.66 2.64 1 4 C1.66 4 2.32 4 3 4 C3 18.85 3 33.7 3 49 C3.66 49 4.32 49 5 49 C5.33 50.65 5.66 52.3 6 54 C2.15346254 51.6118423 2.15346254 51.6118423 1.48101807 48.93086243 C1.47213562 48.1381041 1.46325317 47.34534576 1.45410156 46.52856445 C1.43438293 45.62785721 1.41466431 44.72714996 1.39434814 43.79914856 C1.39311951 42.83031235 1.39189087 41.86147614 1.390625 40.86328125 C1.36582062 39.37141548 1.36582062 39.37141548 1.34051514 37.84941101 C1.2919005 34.67037871 1.27063406 31.4918252 1.25 28.3125 C1.22185163 26.15817886 1.19192581 24.00388016 1.16015625 21.84960938 C1.08278816 16.56618312 1.04239299 11.28428647 1 6 C0.34 14.58 -0.32 23.16 -1 32 C-1.66 31.67 -2.32 31.34 -3 31 C-2.67 21.1 -2.34 11.2 -2 1 C-1.34 0.67 -0.68 0.34 0 0 Z " fill="#B95909" transform="translate(307,241)"/>
<path d="M0 0 C0 0.33 0 0.66 0 1 C-5.52713073 1.43565114 -11.05485674 1.86243786 -16.58325195 2.28173828 C-18.45582616 2.42493231 -20.32823085 2.57036435 -22.20043945 2.71826172 C-34.16116314 3.66126326 -46.00141743 4.21371269 -58 4 C-55.0817796 2.36029348 -52.7541179 1.6840695 -49.42578125 1.41015625 C-48.54486816 1.33684082 -47.66395508 1.26352539 -46.75634766 1.18798828 C-42.23496799 0.87962138 -37.71538068 0.62849852 -33.1875 0.4375 C-32.20644287 0.3950415 -31.22538574 0.35258301 -30.21459961 0.30883789 C-20.14193255 -0.09181161 -10.0786171 -0.09360945 0 0 Z " fill="#F7AE70" transform="translate(454,460)"/>
<path d="M0 0 C0.66 0 1.32 0 2 0 C2 0.66 2 1.32 2 2 C2.5775 2.0825 3.155 2.165 3.75 2.25 C6.6159304 3.20531013 7.9990764 4.78469173 10 7 C9.67 7.66 9.34 8.32 9 9 C8.01 8.67 7.02 8.34 6 8 C3.93184123 15.97718384 3.3637019 22.81850951 5 31 C4.01 31 3.02 31 2 31 C2 23.74 2 16.48 2 9 C1.34 9 0.68 9 0 9 C0 6.03 0 3.06 0 0 Z " fill="#6A3104" transform="translate(303,207)"/>
<path d="M0 0 C9.00840533 -0.21823862 17.73401578 0.04346297 26.67333984 1.21386719 C33.76739571 2.13739264 40.8580046 2.60495513 48 3 C48 3.33 48 3.66 48 4 C43.10702988 4.04955872 38.21420695 4.0857946 33.32104492 4.10986328 C31.65760756 4.11990057 29.99418775 4.13353331 28.33081055 4.15087891 C25.93533995 4.17522749 23.54010332 4.18650588 21.14453125 4.1953125 C20.03486748 4.21079636 20.03486748 4.21079636 18.90278625 4.22659302 C14.79111812 4.22747989 11.71248745 3.76606873 8 2 C5.33427985 1.50686503 2.70184283 1.27476368 0 1 C0 0.67 0 0.34 0 0 Z " fill="#FA9943" transform="translate(304,77)"/>
<path d="M0 0 C4.29 0 8.58 0 13 0 C13 1.65 13 3.3 13 5 C11 7 11 7 7.0625 7.3125 C4.42254903 7.24063201 3.26946893 7.16841808 1 5.75 C0 4 0 4 0 0 Z " fill="#2A0E03" transform="translate(233,288)"/>
<path d="M0 0 C0.33 0 0.66 0 1 0 C1 8.58 1 17.16 1 26 C0.01 26.33 -0.98 26.66 -2 27 C-2.05784708 22.87505849 -2.09354407 18.75022056 -2.125 14.625 C-2.14175781 13.449375 -2.15851563 12.27375 -2.17578125 11.0625 C-2.18222656 9.94101563 -2.18867188 8.81953125 -2.1953125 7.6640625 C-2.20578613 6.62717285 -2.21625977 5.5902832 -2.22705078 4.52197266 C-2 2 -2 2 0 0 Z " fill="#924816" transform="translate(252,207)"/>
<path d="M0 0 C0.66 0 1.32 0 2 0 C-0.12189616 11.4221219 -0.12189616 11.4221219 -2 16 C-2.66 16.33 -3.32 16.66 -4 17 C-4.46898963 19.8159849 -4.46898963 19.8159849 -4.625 23.0625 C-4.69976562 24.16722656 -4.77453125 25.27195313 -4.8515625 26.41015625 C-4.90054688 27.26480469 -4.94953125 28.11945313 -5 29 C-8.38306048 23.92540928 -7.7041174 17.91876902 -7 12 C-4.625 9.0625 -4.625 9.0625 -2 7 C-1.01495084 4.67350199 -0.53590864 2.48466731 0 0 Z " fill="#F87A0F" transform="translate(237,222)"/>
<path d="M0 0 C0.66 0 1.32 0 2 0 C2 8.58 2 17.16 2 26 C1.67 26 1.34 26 1 26 C1 19.07 1 12.14 1 5 C-2.99110319 7.99332739 -4.04539348 9.60213533 -6 14 C-6.66 14 -7.32 14 -8 14 C-8 15.65 -8 17.3 -8 19 C-8.66 18.67 -9.32 18.34 -10 18 C-8.6948802 13.5730861 -6.9640877 10.04331547 -4.4375 6.1875 C-3.81746094 5.23230469 -3.19742188 4.27710938 -2.55859375 3.29296875 C-1 1 -1 1 0 0 Z " fill="#290900" transform="translate(248,209)"/>
<path d="M0 0 C1.875 0.5625 1.875 0.5625 4 2 C5.25 5.625 5.25 5.625 6 9 C6.66 9 7.32 9 8 9 C8.98329211 13.05607995 9.23600253 16.83062202 9 21 C8.34 21.66 7.68 22.32 7 23 C6.91363281 22.31035156 6.82726562 21.62070313 6.73828125 20.91015625 C5.81918296 14.76315946 4.3653397 10.12932023 1.0234375 4.875 C0 3 0 3 0 0 Z " fill="#DA7010" transform="translate(318,223)"/>
<path d="M0 0 C1.81274414 0.01450195 1.81274414 0.01450195 3.66210938 0.02929688 C5.55606445 0.06700195 5.55606445 0.06700195 7.48828125 0.10546875 C9.39963867 0.12577148 9.39963867 0.12577148 11.34960938 0.14648438 C14.50042182 0.18188676 17.6503917 0.23127085 20.80078125 0.29296875 C20.80078125 0.62296875 20.80078125 0.95296875 20.80078125 1.29296875 C10.67488436 3.06500071 1.04632355 3.53247493 -9.19921875 3.29296875 C-6.54997804 -0.23528271 -4.24924253 -0.05984849 0 0 Z " fill="#FB9336" transform="translate(257.19921875,466.70703125)"/>
<path d="M0 0 C2.31 0.33 4.62 0.66 7 1 C6.53898164 5.70238725 5.96823597 9.23262357 3 13 C2.01 13 1.02 13 0 13 C-1.28571429 4.57142857 -1.28571429 4.57142857 0 0 Z " fill="#EF790D" transform="translate(267,199)"/>
<path d="M0 0 C1.62463842 -0.05395478 3.24978541 -0.09277195 4.875 -0.125 C5.77992188 -0.14820313 6.68484375 -0.17140625 7.6171875 -0.1953125 C10 0 10 0 12 2 C13.98821313 2.39764263 15.98944339 2.73775349 18 3 C18 3.66 18 4.32 18 5 C18.66 5 19.32 5 20 5 C20.33 6.32 20.66 7.64 21 9 C20.33355469 8.6390625 19.66710937 8.278125 18.98046875 7.90625 C12.06164093 4.42264438 6.71051855 3.32887169 -1 4 C-0.67 2.68 -0.34 1.36 0 0 Z " fill="#CA6417" transform="translate(272,155)"/>
<path d="M0 0 C-4.61105818 3.45592656 -9.00416908 3.73657237 -14.5625 4.1875 C-15.8913623 4.30810791 -15.8913623 4.30810791 -17.24707031 4.43115234 C-23.83694329 4.99452282 -30.3863876 5.24196143 -37 5 C-33.98414575 2.9894305 -33.35724253 2.75067622 -29.97265625 2.69140625 C-29.18568359 2.66804199 -28.39871094 2.64467773 -27.58789062 2.62060547 C-26.75451172 2.60143066 -25.92113281 2.58225586 -25.0625 2.5625 C-18.14494884 2.32256219 -11.90364399 1.58379885 -5.25 -0.4765625 C-3 -1 -3 -1 0 0 Z " fill="#F3AE72" transform="translate(491,455)"/>
<path d="M0 0 C2.64 0 5.28 0 8 0 C8 0.33 8 0.66 8 1 C5.69 1 3.38 1 1 1 C1.061875 2.794375 1.061875 2.794375 1.125 4.625 C1.13851708 8.42329953 0.42009753 11.44975618 -1 15 C-2.796875 14.83984375 -2.796875 14.83984375 -5 14 C-6.703125 11.56640625 -6.703125 11.56640625 -8.25 8.5625 C-9.03117187 7.07943359 -9.03117187 7.07943359 -9.828125 5.56640625 C-11 3 -11 3 -11 1 C-10.34 1 -9.68 1 -9 1 C-8.66226562 1.63808594 -8.32453125 2.27617187 -7.9765625 2.93359375 C-7.53054688 3.75988281 -7.08453125 4.58617187 -6.625 5.4375 C-6.18414062 6.26121094 -5.74328125 7.08492187 -5.2890625 7.93359375 C-4.16581441 10.13466578 -4.16581441 10.13466578 -2 11 C-1.34 7.37 -0.68 3.74 0 0 Z " fill="#99480C" transform="translate(291,205)"/>
<path d="M0 0 C0.66 0 1.32 0 2 0 C1.56513414 2.43524884 1.08290181 3.8918672 -0.4375 5.875 C-4.05185595 10.79052409 -4.16838334 15.12508887 -3.484375 20.94921875 C-3.05667921 23.29261675 -3.05667921 23.29261675 -1 26 C-1.33 26.99 -1.66 27.98 -2 29 C-6.37483969 21.96221441 -6.86160228 16.30801142 -5.25 8.25 C-3.94261671 4.85080345 -2.52966613 2.60871819 0 0 Z " fill="#1E0100" transform="translate(264,163)"/>
<path d="M0 0 C1.890625 0.2890625 1.890625 0.2890625 4 1 C7.41960425 7.59495106 8.49489448 15.03420109 6.3203125 22.2578125 C5.5 24.1875 5.5 24.1875 4 27 C3.34 27 2.68 27 2 27 C2.33 26.21625 2.66 25.4325 3 24.625 C4.83782989 17.96286664 4.48053863 10.72972104 3 4 C1.57324827 1.61971709 1.57324827 1.61971709 0 0 Z " fill="#BA6313" transform="translate(294,165)"/>
<path d="M0 0 C3 2 3 2 3.6875 5 C3.81508261 6.33129679 3.91657552 7.66520832 4 9 C4.06445312 9.804375 4.12890625 10.60875 4.1953125 11.4375 C4.47548475 17.56393312 3.50278304 20.96474939 0 26 C-0.625 24.25 -0.625 24.25 -1 22 C-0.68160156 21.40316406 -0.36320312 20.80632812 -0.03515625 20.19140625 C2.72680961 14.34437663 1.10397344 6.20985058 0 0 Z " fill="#300B01" transform="translate(295,167)"/>
<path d="M0 0 C0 0.33 0 0.66 0 1 C-10.6948466 1.96288008 -21.27132003 2.10947633 -32 2 C-32 1.67 -32 1.34 -32 1 C-21.47100058 -1.98362747 -10.76452766 -0.7585087 0 0 Z " fill="#A24B0D" transform="translate(304,274)"/>
<path d="M0 0 C0.66 0.33 1.32 0.66 2 1 C1.67 4.3 1.34 7.6 1 11 C0.34 11 -0.32 11 -1 11 C-1 11.66 -1 12.32 -1 13 C-2.65 13.33 -4.3 13.66 -6 14 C-8.09230769 9.56923077 -8.09230769 9.56923077 -7.625 6.6875 C-7.41875 6.130625 -7.2125 5.57375 -7 5 C-6.67 6.98 -6.34 8.96 -6 11 C-5.01 11 -4.02 11 -3 11 C-1.72746564 7.35206816 -0.67170806 3.8063457 0 0 Z " fill="#D4670F" transform="translate(273,201)"/>
<path d="M0 0 C0.33 0 0.66 0 1 0 C1.25727012 3.35262169 1.47567367 6.70672493 1.6875 10.0625 C1.76033203 11.00544922 1.83316406 11.94839844 1.90820312 12.91992188 C2.26006403 18.86016189 1.83802638 22.739802 -1 28 C-1.66 27.67 -2.32 27.34 -3 27 C-2.67 26.67 -2.34 26.34 -2 26 C-1.7714679 24.0769127 -1.60481143 22.14639772 -1.46484375 20.21484375 C-1.37783203 19.04501953 -1.29082031 17.87519531 -1.20117188 16.66992188 C-1.11416016 15.43822266 -1.02714844 14.20652344 -0.9375 12.9375 C-0.84662109 11.70193359 -0.75574219 10.46636719 -0.66210938 9.19335938 C-0.43732402 6.12918006 -0.2168144 3.06475198 0 0 Z " fill="#DC7511" transform="translate(247,267)"/>
<path d="M0 0 C3 2 3 2 3.68359375 3.703125 C4.10165956 6.7379731 4.09312533 9.6874667 4.0625 12.75 C4.05347656 13.92046875 4.04445312 15.0909375 4.03515625 16.296875 C4.02355469 17.18890625 4.01195312 18.0809375 4 19 C2.54296875 18.01171875 2.54296875 18.01171875 1 16 C0.62325482 13.20748417 0.39808059 10.61220799 0.3125 7.8125 C0.27833984 7.06291016 0.24417969 6.31332031 0.20898438 5.54101562 C0.12665706 3.69453162 0.06164719 1.84729006 0 0 Z " fill="#E57206" transform="translate(248,273)"/>
<path d="M0 0 C-0.32742188 0.55171875 -0.65484375 1.1034375 -0.9921875 1.671875 C-2.16787715 4.38780923 -2.20248638 6.30551759 -2.125 9.25 C-2.10695313 10.14203125 -2.08890625 11.0340625 -2.0703125 11.953125 C-2.04710937 12.62859375 -2.02390625 13.3040625 -2 14 C-2.66 14 -3.32 14 -4 14 C-7 9.61538462 -7 9.61538462 -7 7 C-6.34 7 -5.68 7 -5 7 C-5.66 5.35 -6.32 3.7 -7 2 C-2.25 0 -2.25 0 0 0 Z " fill="#F77D06" transform="translate(291,199)"/>
<path d="M0 0 C1.16337891 0.01289062 2.32675781 0.02578125 3.52539062 0.0390625 C4.74033203 0.07257813 5.95527344 0.10609375 7.20703125 0.140625 C8.43357422 0.15867187 9.66011719 0.17671875 10.92382812 0.1953125 C13.95650884 0.24251376 16.98763212 0.30834823 20.01953125 0.390625 C20.01953125 0.720625 20.01953125 1.050625 20.01953125 1.390625 C19.40956299 1.41568115 18.79959473 1.4407373 18.17114258 1.46655273 C15.39125227 1.5830308 12.61165785 1.70552132 9.83203125 1.828125 C8.87232422 1.86744141 7.91261719 1.90675781 6.92382812 1.94726562 C5.99248047 1.98916016 5.06113281 2.03105469 4.1015625 2.07421875 C2.82116089 2.12920532 2.82116089 2.12920532 1.51489258 2.18530273 C-1.07119963 2.39809048 -3.47298325 2.71610464 -5.98046875 3.390625 C-7.34067026 5.35820773 -7.34067026 5.35820773 -7.98046875 7.390625 C-8.98046875 4.390625 -8.98046875 4.390625 -7.91674805 2.22753906 C-5.24527498 -0.30684038 -3.63960034 -0.07101659 0 0 Z " fill="#F6AC6D" transform="translate(75.98046875,64.609375)"/>
<path d="M0 0 C5.94 0 11.88 0 18 0 C18 0.66 18 1.32 18 2 C23.28 2 28.56 2 34 2 C34 2.33 34 2.66 34 3 C22.47007127 3.24020685 11.40443688 2.74018655 0 1 C0 0.67 0 0.34 0 0 Z " fill="#FB9239" transform="translate(94,66)"/>
<path d="M0 0 C0.33 0 0.66 0 1 0 C1 2.31 1 4.62 1 7 C1.66 7 2.32 7 3 7 C3 8.32 3 9.64 3 11 C3.74765625 11.06058594 4.4953125 11.12117188 5.265625 11.18359375 C6.25046875 11.26738281 7.2353125 11.35117187 8.25 11.4375 C9.71179688 11.55931641 9.71179688 11.55931641 11.203125 11.68359375 C13.56461753 11.95074584 15.71901065 12.35371968 18 13 C13.82164842 15.08917579 8.47055502 14.37546086 4.0625 13.25 C1.47014657 11.67887671 0.84525693 10.91997848 0 8 C-0.14951016 5.30881711 -0.09000842 2.70025252 0 0 Z " fill="#320A00" transform="translate(254,368)"/>
<path d="M0 0 C0.33 0 0.66 0 1 0 C1.25031289 7.50938673 1.25031289 7.50938673 0.0234375 9.9140625 C-1.63608386 13.29644573 -1.45709427 16.82480813 -1.65625 20.5390625 C-2 23 -2 23 -4 25 C-4.32492129 16.38958582 -3.05961715 8.08613103 0 0 Z " fill="#310C01" transform="translate(237,228)"/>
<path d="M0 0 C0.33 0 0.66 0 1 0 C1 4.29 1 8.58 1 13 C1.66 13 2.32 13 3 13 C3.66 14.65 4.32 16.3 5 18 C6.27875 18.020625 7.5575 18.04125 8.875 18.0625 C9.59429687 18.07410156 10.31359375 18.08570313 11.0546875 18.09765625 C13.08185404 18.12649242 13.08185404 18.12649242 15 17 C14.67 18.32 14.34 19.64 14 21 C5.1595092 20.96625767 5.1595092 20.96625767 1.375 17.8125 C-1.3872918 12.58479822 -0.28138308 5.70582359 0 0 Z " fill="#DE7014" transform="translate(229,278)"/>
<path d="M0 0 C0.639375 0.33 1.27875 0.66 1.9375 1 C1.9375 1.33 1.9375 1.66 1.9375 2 C-4.0025 2 -9.9425 2 -16.0625 2 C-13.53553065 -3.05393871 -4.520042 -1.47593208 0 0 Z " fill="#4A1902" transform="translate(285.0625,159)"/>
<path d="M0 0 C3.63 0 7.26 0 11 0 C11 0.99 11 1.98 11 3 C7.52674819 4.1577506 4.63932552 4.06866652 1 4 C0.67 2.68 0.34 1.36 0 0 Z " fill="#070104" transform="translate(235,288)"/>
<path d="M0 0 C0.75 1.625 0.75 1.625 1 4 C-1.31667863 8.36604819 -3.58392644 10.79196322 -8 13 C-8.33 11.02 -8.66 9.04 -9 7 C-7.02 7 -5.04 7 -3 7 C-3 6.34 -3 5.68 -3 5 C-2.34 5 -1.68 5 -1 5 C-0.67 3.35 -0.34 1.7 0 0 Z " fill="#813807" transform="translate(275,207)"/>
<path d="M0 0 C4.29 0 8.58 0 13 0 C13 0.99 13 1.98 13 3 C11.20841511 3.02696365 9.41671527 3.04637917 7.625 3.0625 C6.62726563 3.07410156 5.62953125 3.08570313 4.6015625 3.09765625 C2 3 2 3 0 2 C0 1.34 0 0.68 0 0 Z " fill="#562106" transform="translate(233,285)"/>
<path d="M0 0 C0.99 0.33 1.98 0.66 3 1 C3.33 1.99 3.66 2.98 4 4 C2.1875 7 2.1875 7 0 10 C-0.66 10.99 -1.32 11.98 -2 13 C-2.05391993 11.20866022 -2.09275571 9.41686101 -2.125 7.625 C-2.14820313 6.62726563 -2.17140625 5.62953125 -2.1953125 4.6015625 C-2 2 -2 2 0 0 Z " fill="#F07A1C" transform="translate(259,161)"/>
<path d="M0 0 C0.8523482 2.90454041 1.0355529 5.29945716 0.875 8.3125 C0.80070874 14.77583966 3.59229957 19.64504218 7 25 C2.91830476 23.26785202 1.59538156 21.43179588 -0.24609375 17.49609375 C-1.93384939 11.90813595 -1.84082219 5.52246656 0 0 Z " fill="#8E3F0C" transform="translate(258,171)"/>
<path d="M0 0 C0.33 0.99 0.66 1.98 1 3 C-2.28519475 4.09506492 -4.73663415 4.09960608 -8.1875 4.0625 C-9.81751953 4.04896484 -9.81751953 4.04896484 -11.48046875 4.03515625 C-12.31191406 4.02355469 -13.14335937 4.01195312 -14 4 C-14.33 3.01 -14.66 2.02 -15 1 C-14.08476562 1.01160156 -13.16953125 1.02320313 -12.2265625 1.03515625 C-11.03804688 1.04417969 -9.84953125 1.05320312 -8.625 1.0625 C-6.84996094 1.07990234 -6.84996094 1.07990234 -5.0390625 1.09765625 C-2.08078479 1.21466593 -2.08078479 1.21466593 0 0 Z " fill="#D26616" transform="translate(272,380)"/>
<path d="M0 0 C0.99 0 1.98 0 3 0 C3.8723412 2.99480917 4.10829766 5.63575911 4.0625 8.75 C4.05347656 9.54921875 4.04445312 10.3484375 4.03515625 11.171875 C4.01775391 12.07679688 4.01775391 12.07679688 4 13 C3.34 13 2.68 13 2 13 C1.92652344 12.04287109 1.92652344 12.04287109 1.8515625 11.06640625 C1.77679688 10.24011719 1.70203125 9.41382813 1.625 8.5625 C1.55539063 7.73878906 1.48578125 6.91507812 1.4140625 6.06640625 C1.27742187 5.38449219 1.14078125 4.70257813 1 4 C0.34 3.67 -0.32 3.34 -1 3 C-0.67 2.01 -0.34 1.02 0 0 Z " fill="#F37906" transform="translate(248,288)"/>
<path d="M0 0 C4.62 0 9.24 0 14 0 C13.34 2.97 12.68 5.94 12 9 C11.67 9 11.34 9 11 9 C11 7.02 11 5.04 11 3 C10.01 3 9.02 3 8 3 C8 2.34 8 1.68 8 1 C5.36 1 2.72 1 0 1 C0 0.67 0 0.34 0 0 Z " fill="#713004" transform="translate(312,285)"/>
<path d="M0 0 C0.33 0.66 0.66 1.32 1 2 C1.66 2.33 2.32 2.66 3 3 C2.34 3 1.68 3 1 3 C1.33 4.98 1.66 6.96 2 9 C4.97 9.33 7.94 9.66 11 10 C10.67 10.66 10.34 11.32 10 12 C7.36 12 4.72 12 2 12 C-0.60018816 8.09971775 -0.15085514 4.52565431 0 0 Z " fill="#803B07" transform="translate(232,285)"/>
<path d="M0 0 C0.33 0 0.66 0 1 0 C1.12109311 7.07721931 0.85373239 13.97195301 0 21 C-2.14336161 17.5233662 -2.21277626 14.78770805 -2.125 10.75 C-2.10695312 9.67234375 -2.08890625 8.5946875 -2.0703125 7.484375 C-2.04710937 6.66453125 -2.02390625 5.8446875 -2 5 C-1.34 5 -0.68 5 0 5 C0 3.35 0 1.7 0 0 Z " fill="#F17A14" transform="translate(229,267)"/>
<path d="M0 0 C0.66 0 1.32 0 2 0 C2 0.66 2 1.32 2 2 C2.928125 2.1546875 2.928125 2.1546875 3.875 2.3125 C6 3 6 3 8 6 C6.35 5.67 4.7 5.34 3 5 C2.67 6.32 2.34 7.64 2 9 C1.34 9 0.68 9 0 9 C0 6.03 0 3.06 0 0 Z " fill="#763602" transform="translate(303,207)"/>
<path d="M0 0 C0.99 0.33 1.98 0.66 3 1 C3.22786458 3.01822917 3.45572917 5.03645833 3.68359375 7.0546875 C3.91292961 9.07404316 3.91292961 9.07404316 5 11 C4.0625 13.625 4.0625 13.625 3 16 C2.67 16 2.34 16 2 16 C1.34 10.72 0.68 5.44 0 0 Z " fill="#F5840B" transform="translate(299,168)"/>
<path d="M0 0 C6.27 0 12.54 0 19 0 C19 0.66 19 1.32 19 2 C19.99 2.33 20.98 2.66 22 3 C14.65835626 2.40711812 7.32613141 1.761788 0 1 C0 0.67 0 0.34 0 0 Z " fill="#FB8F2D" transform="translate(173,71)"/>
<path d="M0 0 C0.66 0 1.32 0 2 0 C0.98408579 5.46864457 -0.07091057 10.76390013 -2 16 C-2.33 16 -2.66 16 -3 16 C-4.35862069 9.70094044 -4.35862069 9.70094044 -2.625 6.3125 C-2.08875 5.549375 -1.5525 4.78625 -1 4 C-0.30420546 1.80869466 -0.30420546 1.80869466 0 0 Z " fill="#CE6C1E" transform="translate(237,222)"/>
<path d="M0 0 C1 3 1 3 0.22265625 4.82421875 C-0.8515625 6.54947917 -1.92578125 8.27473958 -3 10 C-3.66 10 -4.32 10 -5 10 C-5 11.65 -5 13.3 -5 15 C-5.66 14.67 -6.32 14.34 -7 14 C-5.53967505 8.68972746 -3.01679014 4.53669968 0 0 Z " fill="#410F02" transform="translate(245,213)"/>
<path d="M0 0 C0.99 0.33 1.98 0.66 3 1 C1.78294994 2.01471171 0.55073116 3.0112461 -0.6875 4 C-1.71423828 4.8353125 -1.71423828 4.8353125 -2.76171875 5.6875 C-5.38783056 7.22741897 -7.00603356 7.25168194 -10 7 C-5.375 3 -5.375 3 -2 3 C-2 2.34 -2 1.68 -2 1 C-1.34 0.67 -0.68 0.34 0 0 Z " fill="#2A0A00" transform="translate(291,193)"/>
<path d="M0 0 C2.64 0 5.28 0 8 0 C8.125 3.375 8.125 3.375 8 7 C7.34 7.66 6.68 8.32 6 9 C6 6.69 6 4.38 6 2 C4.68 2 3.36 2 2 2 C1.34 2.66 0.68 3.32 0 4 C0 2.68 0 1.36 0 0 Z " fill="#1D0900" transform="translate(294,207)"/>
<path d="M0 0 C-4.72194167 3.77755334 -9.25928072 3.30096975 -15 3 C-15 2.67 -15 2.34 -15 2 C-13.06524329 1.46906676 -11.12706845 0.95057683 -9.1875 0.4375 C-8.10855469 0.14746094 -7.02960938 -0.14257812 -5.91796875 -0.44140625 C-3 -1 -3 -1 0 0 Z " fill="#F1A259" transform="translate(491,455)"/>
<path d="M0 0 C1 2 1 2 0.44140625 3.9453125 C0.15136719 4.66460937 -0.13867188 5.38390625 -0.4375 6.125 C-0.72496094 6.84945312 -1.01242188 7.57390625 -1.30859375 8.3203125 C-1.53675781 8.87460938 -1.76492187 9.42890625 -2 10 C-4 8 -4 8 -4.125 4.875 C-4.08375 3.92625 -4.0425 2.9775 -4 2 C-2.68 1.34 -1.36 0.68 0 0 Z " fill="#F77B12" transform="translate(237,220)"/>
<path d="M0 0 C3.84280285 1.24631444 6.07319896 2.36048692 8 6 C7.6875 8.25 7.6875 8.25 7 10 C7 9.34 7 8.68 7 8 C6.01 7.67 5.02 7.34 4 7 C3.67 5.35 3.34 3.7 3 2 C2.01 2 1.02 2 0 2 C0 1.34 0 0.68 0 0 Z " fill="#F5B17A" transform="translate(486,87)"/>
<path d="M0 0 C2.87255066 2.42195448 3.70838919 4.59742703 4.6875 8.1875 C4.93886719 9.08855469 5.19023437 9.98960937 5.44921875 10.91796875 C5.63097656 11.60503906 5.81273437 12.29210937 6 13 C5.34 13 4.68 13 4 13 C3.32404685 11.58774074 2.65959941 10.16997095 2 8.75 C1.62875 7.96109375 1.2575 7.1721875 0.875 6.359375 C0 4 0 4 0 0 Z " fill="#2F0D01" transform="translate(315,219)"/>
<path d="M0 0 C2.31 0.66 4.62 1.32 7 2 C6.67 2.66 6.34 3.32 6 4 C5.01 3.67 4.02 3.34 3 3 C2.34 5.97 1.68 8.94 1 12 C0.67 12 0.34 12 0 12 C0 8.04 0 4.08 0 0 Z " fill="#592905" transform="translate(306,212)"/>
<path d="M0 0 C0.33 0 0.66 0 1 0 C1 3.3 1 6.6 1 10 C0.34 10 -0.32 10 -1 10 C-1 11.65 -1 13.3 -1 15 C-1.33 15 -1.66 15 -2 15 C-2.19392201 9.47322267 -1.7479503 5.24385089 0 0 Z " fill="#804312" transform="translate(249,235)"/>
<path d="M0 0 C7.29247911 0.99442897 7.29247911 0.99442897 10 3 C10.75 5.625 10.75 5.625 11 8 C10.236875 7.360625 9.47375 6.72125 8.6875 6.0625 C6.11753287 3.85767219 6.11753287 3.85767219 3 3 C3 2.34 3 1.68 3 1 C2.01 0.67 1.02 0.34 0 0 Z " fill="#CA6610" transform="translate(302,206)"/>
<path d="M0 0 C0.66 0 1.32 0 2 0 C2.36923077 5.41538462 2.36923077 5.41538462 0.5 8.375 C0.005 8.91125 -0.49 9.4475 -1 10 C-1.66 9.67 -2.32 9.34 -3 9 C-2.01 6.03 -1.02 3.06 0 0 Z " fill="#CE6B0F" transform="translate(326,285)"/>
<path d="M0 0 C0.66 0 1.32 0 2 0 C1.49396008 2.16874252 1.00016187 3.99967627 0 6 C-1.98 6 -3.96 6 -6 6 C-4 4 -2 2 0 0 Z " fill="#DC7A1A" transform="translate(295,192)"/>
<path d="M0 0 C-0.125 1.75 -0.125 1.75 -1 4 C-4.0625 6.25 -4.0625 6.25 -7 8 C-4.18918919 0 -4.18918919 0 0 0 Z " fill="#461400" transform="translate(266,163)"/>
<path d="M0 0 C2.97 0.33 5.94 0.66 9 1 C7 3 7 3 3.375 3.125 C2.26125 3.08375 1.1475 3.0425 0 3 C0 2.01 0 1.02 0 0 Z " fill="#FC8C2A" transform="translate(250,75)"/>
<path d="M0 0 C0.33 0 0.66 0 1 0 C1 2.31 1 4.62 1 7 C0.34 7 -0.32 7 -1 7 C-1.66 8.32 -2.32 9.64 -3 11 C-3.66 11 -4.32 11 -5 11 C-4.67 10.01 -4.34 9.02 -4 8 C-3.34 8 -2.68 8 -2 8 C-1.7834375 7.13375 -1.7834375 7.13375 -1.5625 6.25 C-1.04166667 4.16666667 -0.52083333 2.08333333 0 0 Z " fill="#3A0900" transform="translate(302,370)"/>
<path d="M0 0 C2.31 0 4.62 0 7 0 C7 0.66 7 1.32 7 2 C4.36 2.66 1.72 3.32 -1 4 C-0.67 2.68 -0.34 1.36 0 0 Z " fill="#EA7214" transform="translate(272,155)"/>
<path d="M0 0 C2.31 0.33 4.62 0.66 7 1 C4.38058783 2.74627478 2.96175123 3.38722388 0 4 C0 2.68 0 1.36 0 0 Z " fill="#CA5B02" transform="translate(275,201)"/>
<path d="M0 0 C2.475 0.99 2.475 0.99 5 2 C5 2.99 5 3.98 5 5 C2.03 4.505 2.03 4.505 -1 4 C-0.67 2.68 -0.34 1.36 0 0 Z " fill="#311001" transform="translate(309,214)"/>
<path d="M0 0 C1.32 0 2.64 0 4 0 C4 0.66 4 1.32 4 2 C4.66 2 5.32 2 6 2 C6.33 3.32 6.66 4.64 7 6 C4.5 4.625 4.5 4.625 2 3 C2 2.34 2 1.68 2 1 C1.34 0.67 0.68 0.34 0 0 Z " fill="#D76F1D" transform="translate(286,158)"/>
</svg>
